# 3ds Max Wavefront OBJ Exporter v0.99 - (c)2007 guruware
# File Created: 09.12.2021 10:02:19

mtllib Almohagda_.mtl

#
# object Cojin
#

v  -10.5695 0.9516 10.2536
v  -11.2177 0.1453 6.9086
v  -6.9273 -0.1567 6.9273
v  -6.8991 -0.1744 11.2164
v  -2.3088 -0.2932 6.9268
v  -2.3091 -0.2929 11.2156
v  2.3091 -0.2364 6.9273
v  2.2817 -0.2358 11.2156
v  6.9273 -0.1087 6.9273
v  6.8933 -0.1724 10.4463
v  11.2171 0.2626 6.8751
v  10.2540 0.4951 9.6890
v  -11.1727 -0.0591 2.2520
v  -6.8220 -0.2264 2.1401
v  -2.2882 -0.3171 2.2809
v  2.3091 -0.2364 2.3091
v  6.9273 -0.1087 2.3091
v  11.2159 -0.0130 2.3091
v  -11.1305 -0.1004 -2.4301
v  -6.9273 -0.1567 -2.3091
v  -2.3091 -0.2928 -2.3091
v  2.3091 -0.2364 -2.3091
v  6.9273 -0.1087 -2.3091
v  11.2157 -0.0097 -2.3093
v  -10.6445 0.5357 -6.6510
v  -6.9273 -0.1567 -6.9273
v  -2.3091 -0.2928 -6.9273
v  2.3091 -0.2364 -6.9273
v  6.9273 -0.1087 -6.9273
v  11.2159 0.0933 -6.8804
v  -9.7036 0.8545 -9.7287
v  -6.4434 0.1118 -10.6778
v  -2.2903 -0.2989 -11.2157
v  2.3092 -0.2424 -11.2157
v  6.8738 0.2070 -11.2160
v  10.2821 0.2705 -10.0542
v  -10.5805 5.5504 10.2565
v  -6.9030 6.6496 11.2175
v  -6.9273 7.1137 6.9273
v  -11.2255 6.0415 6.9095
v  -2.3109 7.2641 11.2160
v  -2.3091 7.3915 6.9273
v  2.2818 6.9965 11.2159
v  2.3423 7.1357 6.8824
v  6.9528 6.3722 10.3941
v  6.9660 6.6010 6.8750
v  10.4138 4.9802 9.4459
v  11.2304 5.3325 6.8946
v  -6.9273 7.1538 2.3091
v  -11.2217 6.3994 2.3091
v  -2.3091 7.3395 2.3091
v  2.3091 7.2026 2.3091
v  6.9273 6.6600 2.3091
v  11.2254 5.6514 2.3150
v  -6.9273 7.1538 -2.3091
v  -11.2223 6.4001 -2.2948
v  -2.3091 7.3395 -2.3091
v  2.3091 7.2026 -2.3091
v  6.9273 6.6600 -2.3091
v  11.2254 5.7001 -2.3084
v  -6.9273 6.8434 -6.9273
v  -10.8820 5.8230 -6.6501
v  -2.3091 7.2487 -6.9273
v  2.3091 7.2210 -6.9273
v  6.9273 6.4328 -6.9273
v  11.2319 5.0447 -6.9032
v  -6.7906 6.4864 -10.9048
v  -9.7181 5.4478 -9.7428
v  -2.3085 7.2581 -11.2158
v  2.3119 6.9968 -11.2160
v  6.9001 6.0222 -11.2178
v  10.3023 4.5503 -10.0547
v  -10.5416 1.2788 10.6598
v  -6.8987 0.1662 11.6065
v  -6.9273 2.9728 12.0624
v  -10.6133 2.9731 11.1188
v  -2.2995 0.0327 11.5979
v  -2.3091 3.2987 12.1162
v  -6.5974 3.2987 12.1162
v  2.3060 0.0892 11.5981
v  2.3091 3.2987 12.1162
v  6.9302 0.1609 10.8337
v  6.9709 2.8930 11.2582
v  6.6480 3.2255 11.3668
v  10.2243 0.8175 10.0903
v  10.5676 2.6713 10.6030
v  -10.6131 3.6238 11.1159
v  -6.9273 3.6242 12.0601
v  -6.8982 6.2882 11.6077
v  -10.5418 5.1911 10.6626
v  -2.2961 6.9213 11.5957
v  2.2822 6.6569 11.5994
v  6.9747 3.5454 11.2487
v  6.9385 6.0208 10.8016
v  10.5920 3.3215 10.5846
v  10.3621 4.6338 9.8712
v  10.6442 0.8496 9.7228
v  11.5990 0.6224 6.9228
v  11.9071 2.6787 6.9273
v  11.0003 2.6521 10.1919
v  11.5882 0.3264 2.2881
v  11.9567 3.2987 2.3091
v  11.9567 3.0263 6.5981
v  11.5866 0.3273 -2.3091
v  11.9567 3.2987 -2.3091
v  11.5909 0.4352 -6.9222
v  11.9142 2.9688 -6.9273
v  11.9567 3.2987 -6.5974
v  10.6775 0.6121 -10.0254
v  11.0124 2.6380 -10.2692
v  11.0141 3.3041 10.1052
v  11.8967 3.3301 6.9273
v  11.6122 4.9094 6.9122
v  10.7910 4.5574 9.5094
v  11.6042 5.2474 2.3057
v  11.6083 5.2964 -2.2870
v  11.8764 3.6188 -6.9273
v  11.6278 4.6186 -6.9115
v  10.9785 3.2898 -10.2345
v  10.7156 4.1302 -10.0480
v  10.2887 0.6199 -10.4630
v  6.9217 0.5522 -11.6090
v  6.9129 2.9744 -12.1018
v  10.6011 2.6384 -10.6926
v  2.2766 0.0866 -11.6037
v  2.3091 2.9737 -12.1052
v  -2.3125 0.0310 -11.6080
v  -2.3091 2.9733 -12.1060
v  -1.9792 3.2987 -12.1618
v  1.9792 3.2987 -12.1618
v  -6.4776 0.4602 -11.0880
v  -6.8033 2.9808 -11.7623
v  -9.7187 1.2101 -10.1629
v  -10.2785 2.9818 -10.6456
v  10.5634 3.2903 -10.6960
v  7.2280 3.5886 -11.9556
v  7.2372 5.5117 -11.5356
v  10.3003 4.1804 -10.4779
v  6.5977 3.6238 -12.1057
v  2.3091 3.6241 -12.1074
v  2.2649 6.6577 -11.6034
v  6.5973 5.7154 -11.6030
v  -2.3091 3.6247 -12.1110
v  -2.2937 6.9218 -11.6004
v  -6.8290 3.6210 -11.7758
v  -6.7862 6.1330 -11.3074
v  -10.2807 3.6243 -10.6785
v  -9.7201 5.0801 -10.1619
v  -10.1458 1.2322 -9.7495
v  -11.0729 0.9056 -6.6826
v  -11.8242 2.9859 -6.6909
v  -10.7046 2.9866 -10.2141
v  -11.5437 0.2376 -2.4166
v  -12.1932 2.9772 -2.3136
v  -11.5777 0.2757 2.2451
v  -12.2016 2.9763 2.3077
v  -11.6186 0.5041 6.9020
v  -12.2101 2.9767 6.9138
v  -10.9734 1.3069 10.2684
v  -10.9957 2.9763 10.6771
v  -10.7169 3.6147 -10.2114
v  -11.8341 3.6134 -6.6767
v  -11.2972 5.4165 -6.6850
v  -10.1526 5.0422 -9.7570
v  -12.1958 3.6162 -2.3060
v  -11.6269 6.0166 -2.2928
v  -12.1975 3.6175 2.3075
v  -11.6250 6.0171 2.2831
v  -12.1997 3.6189 6.9272
v  -11.6265 5.6412 6.9059
v  -10.9887 3.6191 10.6695
v  -10.9787 5.1449 10.2776
# 172 vertices

vn -0.4730 -0.7733 0.4222
vn -0.3949 -0.9048 0.1591
vn -0.0501 -0.9987 0.0048
vn -0.1865 -0.9158 0.3557
vn -0.0087 -1.0000 0.0026
vn -0.0063 -0.9389 0.3441
vn 0.0200 -0.9998 0.0001
vn 0.0420 -0.9325 0.3586
vn 0.0570 -0.9983 -0.0088
vn 0.1554 -0.9329 0.3248
vn 0.4236 -0.8962 0.1321
vn 0.4100 -0.8275 0.3835
vn -0.3550 -0.9346 0.0215
vn -0.0291 -0.9996 -0.0008
vn -0.0012 -1.0000 -0.0000
vn 0.0226 -0.9997 -0.0000
vn 0.0250 -0.9997 -0.0000
vn 0.3696 -0.9288 0.0278
vn -0.3452 -0.9345 -0.0870
vn -0.0213 -0.9997 -0.0076
vn -0.0087 -1.0000 -0.0026
vn 0.0199 -0.9998 -0.0000
vn 0.0254 -0.9997 -0.0000
vn 0.3704 -0.9288 -0.0108
vn -0.4353 -0.8770 -0.2034
vn -0.1113 -0.9928 -0.0439
vn -0.0087 -1.0000 0.0007
vn 0.0199 -0.9998 0.0007
vn 0.0376 -0.9986 -0.0371
vn 0.4000 -0.9119 -0.0919
vn -0.4300 -0.8217 -0.3739
vn -0.2170 -0.9006 -0.3765
vn -0.0607 -0.9356 -0.3478
vn 0.0522 -0.9384 -0.3417
vn 0.1224 -0.9055 -0.4063
vn 0.3468 -0.8729 -0.3433
vn -0.4934 0.7732 0.3984
vn -0.2353 0.8776 0.4176
vn -0.1513 0.9868 0.0578
vn -0.4969 0.8562 0.1415
vn -0.0349 0.9300 0.3659
vn -0.0025 1.0000 0.0093
vn 0.1195 0.9173 0.3797
vn 0.0852 0.9961 0.0235
vn 0.3041 0.8820 0.3599
vn 0.2006 0.9790 0.0375
vn 0.5304 0.7391 0.4152
vn 0.5384 0.8262 0.1660
vn -0.1068 0.9943 0.0043
vn -0.4470 0.8938 0.0349
vn -0.0053 1.0000 -0.0056
vn 0.0731 0.9973 0.0070
vn 0.1727 0.9850 0.0056
vn 0.4979 0.8666 0.0344
vn -0.1066 0.9937 -0.0333
vn -0.4492 0.8903 -0.0750
vn -0.0053 0.9999 -0.0098
vn 0.0732 0.9973 0.0020
vn 0.1674 0.9856 -0.0242
vn 0.4872 0.8714 -0.0571
vn -0.1721 0.9818 -0.0803
vn -0.4934 0.8428 -0.2152
vn -0.0408 0.9991 -0.0087
vn 0.0872 0.9959 -0.0240
vn 0.2377 0.9688 -0.0709
vn 0.5404 0.8179 -0.1976
vn -0.3065 0.8665 -0.3941
vn -0.5137 0.7532 -0.4108
vn -0.0646 0.9349 -0.3489
vn 0.1231 0.9198 -0.3726
vn 0.3177 0.8501 -0.4200
vn 0.5546 0.7249 -0.4085
vn -0.4844 -0.4520 0.7491
vn -0.1793 -0.4857 0.8555
vn -0.1459 -0.0987 0.9844
vn -0.5148 -0.1197 0.8489
vn -0.0033 -0.4929 0.8701
vn 0.0000 -0.0073 1.0000
vn -0.0411 0.0035 0.9991
vn 0.0781 -0.4838 0.8717
vn 0.0849 -0.0025 0.9964
vn 0.2153 -0.4938 0.8425
vn 0.1930 -0.0899 0.9771
vn 0.2100 0.0128 0.9776
vn 0.4297 -0.5021 0.7505
vn 0.4409 -0.1516 0.8847
vn -0.5199 0.1310 0.8441
vn -0.1459 0.1057 0.9836
vn -0.2010 0.4640 0.8627
vn -0.4834 0.4428 0.7551
vn -0.0182 0.4860 0.8738
vn 0.1168 0.4741 0.8727
vn 0.2013 0.1169 0.9725
vn 0.3027 0.4808 0.8229
vn 0.4844 0.2403 0.8412
vn 0.5053 0.5528 0.6626
vn 0.7348 -0.4877 0.4713
vn 0.8755 -0.4507 0.1744
vn 0.9847 -0.0867 0.1509
vn 0.8400 -0.1207 0.5290
vn 0.8854 -0.4646 0.0134
vn 0.9995 0.0308 0.0011
vn 0.9990 0.0143 0.0420
vn 0.8866 -0.4626 -0.0052
vn 0.9997 0.0244 -0.0000
vn 0.8806 -0.4516 -0.1433
vn 0.9867 -0.0547 -0.1528
vn 0.9972 0.0587 -0.0460
vn 0.7831 -0.4497 -0.4296
vn 0.8671 -0.0668 -0.4936
vn 0.8586 0.2010 0.4717
vn 0.9801 0.1155 0.1616
vn 0.8855 0.4300 0.1758
vn 0.7446 0.4895 0.4539
vn 0.8910 0.4536 0.0187
vn 0.8877 0.4595 -0.0287
vn 0.9714 0.1741 -0.1614
vn 0.8680 0.4604 -0.1860
vn 0.8544 0.2076 -0.4763
vn 0.7536 0.4874 -0.4410
vn 0.4756 -0.4452 -0.7587
vn 0.1704 -0.4804 -0.8604
vn 0.1831 -0.0723 -0.9804
vn 0.5524 -0.0765 -0.8301
vn 0.0276 -0.5024 -0.8642
vn 0.0218 -0.1085 -0.9939
vn -0.0756 -0.4998 -0.8628
vn -0.0592 -0.1072 -0.9925
vn -0.0399 -0.0076 -0.9992
vn 0.0415 -0.0034 -0.9991
vn -0.2466 -0.5367 -0.8069
vn -0.1914 -0.1522 -0.9696
vn -0.4627 -0.5285 -0.7118
vn -0.5212 -0.2066 -0.8280
vn 0.5618 0.1825 -0.8069
vn 0.3078 0.1339 -0.9420
vn 0.3607 0.4526 -0.8155
vn 0.5514 0.4763 -0.6849
vn 0.1021 0.1345 -0.9856
vn 0.0218 0.1014 -0.9946
vn 0.0666 0.4932 -0.8674
vn 0.1578 0.4774 -0.8644
vn -0.0577 0.0929 -0.9940
vn -0.0556 0.4962 -0.8664
vn -0.1898 0.0772 -0.9788
vn -0.2934 0.4685 -0.8333
vn -0.5292 0.2042 -0.8235
vn -0.5250 0.5448 -0.6539
vn -0.7190 -0.5387 -0.4390
vn -0.8035 -0.5469 -0.2350
vn -0.9662 -0.1732 -0.1908
vn -0.8375 -0.1947 -0.5105
vn -0.8416 -0.5331 -0.0870
vn -0.9923 -0.1167 -0.0423
vn -0.8488 -0.5286 0.0083
vn -0.9939 -0.1101 -0.0018
vn -0.8482 -0.5096 0.1443
vn -0.9826 -0.1085 0.1510
vn -0.8080 -0.3858 0.4453
vn -0.8636 -0.0596 0.5006
vn -0.8426 0.2155 -0.4936
vn -0.9728 0.1344 -0.1886
vn -0.8335 0.4957 -0.2442
vn -0.6927 0.5539 -0.4619
vn -0.9926 0.1140 -0.0410
vn -0.8613 0.5038 -0.0656
vn -0.9928 0.1200 -0.0005
vn -0.8632 0.5044 0.0202
vn -0.9780 0.1413 0.1537
vn -0.8561 0.4989 0.1350
vn -0.8663 0.0742 0.4940
vn -0.8212 0.3709 0.4337
# 172 vertex normals

vt 0.3750 0.1548 0.0000
vt 0.3860 0.2111 0.0000
vt 0.3133 0.2111 0.0000
vt 0.3133 0.1385 0.0000
vt 0.2351 0.2111 0.0000
vt 0.2351 0.1385 0.0000
vt 0.1569 0.2111 0.0000
vt 0.1569 0.1385 0.0000
vt 0.0787 0.2111 0.0000
vt 0.0783 0.1518 0.0000
vt 0.0061 0.2111 0.0000
vt 0.0222 0.1642 0.0000
vt 0.3852 0.2905 0.0000
vt 0.3116 0.2922 0.0000
vt 0.2348 0.2898 0.0000
vt 0.1569 0.2893 0.0000
vt 0.0787 0.2893 0.0000
vt 0.0061 0.2893 0.0000
vt 0.3845 0.3695 0.0000
vt 0.3133 0.3675 0.0000
vt 0.2351 0.3675 0.0000
vt 0.1569 0.3675 0.0000
vt 0.0787 0.3675 0.0000
vt 0.0061 0.3675 0.0000
vt 0.3762 0.4421 0.0000
vt 0.3133 0.4457 0.0000
vt 0.2351 0.4457 0.0000
vt 0.1569 0.4457 0.0000
vt 0.0787 0.4457 0.0000
vt 0.0061 0.4457 0.0000
vt 0.3605 0.4933 0.0000
vt 0.3064 0.5090 0.0000
vt 0.2351 0.5184 0.0000
vt 0.1569 0.5184 0.0000
vt 0.0787 0.5184 0.0000
vt 0.0219 0.4987 0.0000
vt 0.5097 0.1499 0.0000
vt 0.5708 0.1312 0.0000
vt 0.5737 0.2038 0.0000
vt 0.5010 0.2067 0.0000
vt 0.6490 0.1281 0.0000
vt 0.6519 0.2007 0.0000
vt 0.7272 0.1250 0.0000
vt 0.7306 0.1983 0.0000
vt 0.8068 0.1360 0.0000
vt 0.8088 0.1953 0.0000
vt 0.8658 0.1492 0.0000
vt 0.8809 0.1916 0.0000
vt 0.5768 0.2819 0.0000
vt 0.5042 0.2848 0.0000
vt 0.6550 0.2788 0.0000
vt 0.7331 0.2757 0.0000
vt 0.8112 0.2726 0.0000
vt 0.8839 0.2697 0.0000
vt 0.5800 0.3600 0.0000
vt 0.5073 0.3629 0.0000
vt 0.6581 0.3569 0.0000
vt 0.7362 0.3538 0.0000
vt 0.8143 0.3507 0.0000
vt 0.8870 0.3477 0.0000
vt 0.5831 0.4382 0.0000
vt 0.5161 0.4372 0.0000
vt 0.6612 0.4351 0.0000
vt 0.7393 0.4320 0.0000
vt 0.8174 0.4289 0.0000
vt 0.8903 0.4261 0.0000
vt 0.5872 0.5053 0.0000
vt 0.5373 0.4880 0.0000
vt 0.6641 0.5076 0.0000
vt 0.7422 0.5045 0.0000
vt 0.8198 0.5014 0.0000
vt 0.8766 0.4795 0.0000
vt 0.5113 0.0190 0.0000
vt 0.5728 0.0014 0.0000
vt 0.5719 0.0488 0.0000
vt 0.5097 0.0478 0.0000
vt 0.6509 0.0005 0.0000
vt 0.6499 0.0557 0.0000
vt 0.5774 0.0544 0.0000
vt 0.7291 0.0029 0.0000
vt 0.7281 0.0572 0.0000
vt 0.8076 0.0056 0.0000
vt 0.8070 0.0517 0.0000
vt 0.8015 0.0573 0.0000
vt 0.8629 0.0175 0.0000
vt 0.8680 0.0491 0.0000
vt 0.5094 0.0587 0.0000
vt 0.5717 0.0598 0.0000
vt 0.5709 0.1048 0.0000
vt 0.5099 0.0853 0.0000
vt 0.6488 0.1170 0.0000
vt 0.7270 0.1139 0.0000
vt 0.8069 0.0628 0.0000
vt 0.8064 0.1045 0.0000
vt 0.8679 0.0595 0.0000
vt 0.8639 0.0823 0.0000
vt 0.9940 0.1545 0.0000
vt 0.9928 0.2017 0.0000
vt 0.9584 0.1980 0.0000
vt 0.9646 0.1435 0.0000
vt 0.9894 0.2796 0.0000
vt 0.9397 0.2742 0.0000
vt 0.9519 0.2029 0.0000
vt 0.9811 0.3569 0.0000
vt 0.9313 0.3516 0.0000
vt 0.9710 0.4341 0.0000
vt 0.9285 0.4295 0.0000
vt 0.9236 0.4234 0.0000
vt 0.9625 0.4857 0.0000
vt 0.9281 0.4861 0.0000
vt 0.9536 0.1437 0.0000
vt 0.9474 0.1969 0.0000
vt 0.9211 0.1940 0.0000
vt 0.9314 0.1512 0.0000
vt 0.9070 0.2707 0.0000
vt 0.8979 0.3481 0.0000
vt 0.9177 0.4283 0.0000
vt 0.9010 0.4265 0.0000
vt 0.9173 0.4842 0.0000
vt 0.9035 0.4797 0.0000
vt 0.8873 0.6040 0.0000
vt 0.8308 0.6107 0.0000
vt 0.8266 0.5699 0.0000
vt 0.8893 0.5695 0.0000
vt 0.7538 0.6261 0.0000
vt 0.7491 0.5776 0.0000
vt 0.6762 0.6347 0.0000
vt 0.6713 0.5852 0.0000
vt 0.6763 0.5792 0.0000
vt 0.7430 0.5726 0.0000
vt 0.6046 0.6343 0.0000
vt 0.5957 0.5925 0.0000
vt 0.5494 0.6272 0.0000
vt 0.5371 0.5982 0.0000
vt 0.8875 0.5586 0.0000
vt 0.8310 0.5590 0.0000
vt 0.8279 0.5266 0.0000
vt 0.8818 0.5439 0.0000
vt 0.8202 0.5595 0.0000
vt 0.7480 0.5666 0.0000
vt 0.7430 0.5156 0.0000
vt 0.8168 0.5242 0.0000
vt 0.6702 0.5742 0.0000
vt 0.6648 0.5187 0.0000
vt 0.5941 0.5817 0.0000
vt 0.5900 0.5399 0.0000
vt 0.5364 0.5878 0.0000
vt 0.5431 0.5619 0.0000
vt 0.4205 0.4924 0.0000
vt 0.4129 0.4410 0.0000
vt 0.4481 0.4396 0.0000
vt 0.4505 0.4990 0.0000
vt 0.3988 0.3692 0.0000
vt 0.4450 0.3656 0.0000
vt 0.3963 0.2900 0.0000
vt 0.4419 0.2874 0.0000
vt 0.3970 0.2109 0.0000
vt 0.4388 0.2092 0.0000
vt 0.4084 0.1540 0.0000
vt 0.4363 0.1458 0.0000
vt 0.4611 0.4986 0.0000
vt 0.4588 0.4392 0.0000
vt 0.4892 0.4380 0.0000
vt 0.4852 0.4902 0.0000
vt 0.4558 0.3650 0.0000
vt 0.4964 0.3634 0.0000
vt 0.4527 0.2869 0.0000
vt 0.4933 0.2853 0.0000
vt 0.4496 0.2088 0.0000
vt 0.4838 0.2074 0.0000
vt 0.4472 0.1453 0.0000
vt 0.4732 0.1511 0.0000
vt 0.3754 0.1491 0.0000
vt 0.3806 0.1541 0.0000
vt 0.5043 0.1497 0.0000
vt 0.5091 0.1444 0.0000
vt 0.5041 0.0585 0.0000
vt 0.5043 0.0477 0.0000
vt 0.8694 0.0825 0.0000
vt 0.8653 0.0874 0.0000
vt 0.9958 0.1495 0.0000
vt 0.9995 0.1540 0.0000
vt 0.9549 0.1379 0.0000
vt 0.9651 0.1381 0.0000
vt 0.9015 0.4846 0.0000
vt 0.8982 0.4802 0.0000
vt 0.8925 0.6043 0.0000
vt 0.8896 0.6093 0.0000
vt 0.8929 0.5588 0.0000
vt 0.8945 0.5693 0.0000
vt 0.5375 0.5627 0.0000
vt 0.5417 0.5568 0.0000
vt 0.4194 0.4975 0.0000
vt 0.4154 0.4935 0.0000
vt 0.4610 0.5038 0.0000
vt 0.4508 0.5044 0.0000
vt 0.3809 0.1556 0.0000
vt 0.3916 0.2111 0.0000
vt 0.3133 0.1329 0.0000
vt 0.3747 0.1489 0.0000
vt 0.2351 0.1329 0.0000
vt 0.1569 0.1329 0.0000
vt 0.0783 0.1460 0.0000
vt 0.0005 0.2111 0.0000
vt 0.0163 0.1648 0.0000
vt 0.0235 0.1584 0.0000
vt 0.0005 0.2893 0.0000
vt 0.3908 0.2904 0.0000
vt 0.3901 0.3696 0.0000
vt 0.0005 0.3675 0.0000
vt 0.3817 0.4418 0.0000
vt 0.0005 0.4457 0.0000
vt 0.3663 0.4923 0.0000
vt 0.3594 0.4992 0.0000
vt 0.3058 0.5147 0.0000
vt 0.2351 0.5239 0.0000
vt 0.1569 0.5239 0.0000
vt 0.0787 0.5239 0.0000
vt 0.0226 0.5048 0.0000
vt 0.0158 0.4977 0.0000
vt 0.5100 0.1441 0.0000
vt 0.5706 0.1257 0.0000
vt 0.4956 0.2069 0.0000
vt 0.5041 0.1511 0.0000
vt 0.6487 0.1226 0.0000
vt 0.7269 0.1194 0.0000
vt 0.8066 0.1303 0.0000
vt 0.8643 0.1436 0.0000
vt 0.8712 0.1500 0.0000
vt 0.8862 0.1914 0.0000
vt 0.4987 0.2850 0.0000
vt 0.8894 0.2695 0.0000
vt 0.8925 0.3475 0.0000
vt 0.5107 0.4372 0.0000
vt 0.5018 0.3632 0.0000
vt 0.5876 0.5109 0.0000
vt 0.5388 0.4938 0.0000
vt 0.5317 0.4870 0.0000
vt 0.6643 0.5132 0.0000
vt 0.8151 0.5072 0.0000
vt 0.7424 0.5101 0.0000
vt 0.8956 0.4259 0.0000
vt 0.8824 0.4783 0.0000
vt 0.8762 0.4855 0.0000
vt 0.8254 0.5051 0.0000
vt 0.5058 0.0203 0.0000
vt 0.8684 0.0185 0.0000
vt 0.8733 0.0490 0.0000
vt 0.5046 0.0838 0.0000
vt 0.8733 0.0594 0.0000
vt 0.8697 0.0810 0.0000
vt 0.9616 0.4910 0.0000
vt 0.9280 0.4914 0.0000
vt 0.9174 0.4898 0.0000
vt 0.9034 0.4852 0.0000
vt 0.5437 0.6269 0.0000
vt 0.5317 0.5985 0.0000
vt 0.5310 0.5884 0.0000
vt 0.5373 0.5634 0.0000
vt 0.8157 0.5072 0.0000
# 260 texture coords

o Cojin
g Cojin
usemtl wire_225088199
s 1
f 1/1/1 2/2/2 3/3/3 4/4/4 
f 4/4/4 3/3/3 5/5/5 6/6/6 
f 6/6/6 5/5/5 7/7/7 8/8/8 
f 8/8/8 7/7/7 9/9/9 10/10/10 
f 10/10/10 9/9/9 11/11/11 12/12/12 
f 2/2/2 13/13/13 14/14/14 3/3/3 
f 3/3/3 14/14/14 15/15/15 5/5/5 
f 5/5/5 15/15/15 16/16/16 7/7/7 
f 7/7/7 16/16/16 17/17/17 9/9/9 
f 9/9/9 17/17/17 18/18/18 11/11/11 
f 13/13/13 19/19/19 20/20/20 14/14/14 
f 14/14/14 20/20/20 21/21/21 15/15/15 
f 15/15/15 21/21/21 22/22/22 16/16/16 
f 16/16/16 22/22/22 23/23/23 17/17/17 
f 17/17/17 23/23/23 24/24/24 18/18/18 
f 19/19/19 25/25/25 26/26/26 20/20/20 
f 20/20/20 26/26/26 27/27/27 21/21/21 
f 21/21/21 27/27/27 28/28/28 22/22/22 
f 22/22/22 28/28/28 29/29/29 23/23/23 
f 23/23/23 29/29/29 30/30/30 24/24/24 
f 25/25/25 31/31/31 32/32/32 26/26/26 
f 26/26/26 32/32/32 33/33/33 27/27/27 
f 27/27/27 33/33/33 34/34/34 28/28/28 
f 28/28/28 34/34/34 35/35/35 29/29/29 
f 29/29/29 35/35/35 36/36/36 30/30/30 
f 37/37/37 38/38/38 39/39/39 40/40/40 
f 38/38/38 41/41/41 42/42/42 39/39/39 
f 41/41/41 43/43/43 44/44/44 42/42/42 
f 43/43/43 45/45/45 46/46/46 44/44/44 
f 45/45/45 47/47/47 48/48/48 46/46/46 
f 40/40/40 39/39/39 49/49/49 50/50/50 
f 39/39/39 42/42/42 51/51/51 49/49/49 
f 42/42/42 44/44/44 52/52/52 51/51/51 
f 44/44/44 46/46/46 53/53/53 52/52/52 
f 46/46/46 48/48/48 54/54/54 53/53/53 
f 50/50/50 49/49/49 55/55/55 56/56/56 
f 49/49/49 51/51/51 57/57/57 55/55/55 
f 51/51/51 52/52/52 58/58/58 57/57/57 
f 52/52/52 53/53/53 59/59/59 58/58/58 
f 53/53/53 54/54/54 60/60/60 59/59/59 
f 56/56/56 55/55/55 61/61/61 62/62/62 
f 55/55/55 57/57/57 63/63/63 61/61/61 
f 57/57/57 58/58/58 64/64/64 63/63/63 
f 58/58/58 59/59/59 65/65/65 64/64/64 
f 59/59/59 60/60/60 66/66/66 65/65/65 
f 62/62/62 61/61/61 67/67/67 68/68/68 
f 61/61/61 63/63/63 69/69/69 67/67/67 
f 63/63/63 64/64/64 70/70/70 69/69/69 
f 64/64/64 65/65/65 71/71/71 70/70/70 
f 65/65/65 66/66/66 72/72/72 71/71/71 
f 73/73/73 74/74/74 75/75/75 76/76/76 
f 74/74/74 77/77/77 78/78/78 79/79/79 75/75/75 
f 77/77/77 80/80/80 81/81/81 78/78/78 
f 80/80/80 82/82/82 83/83/83 84/84/84 81/81/81 
f 82/82/82 85/85/85 86/86/86 83/83/83 
f 87/87/87 88/88/88 89/89/89 90/90/90 
f 88/88/88 79/79/79 78/78/78 91/91/91 89/89/89 
f 78/78/78 81/81/81 92/92/92 91/91/91 
f 81/81/81 84/84/84 93/93/93 94/94/94 92/92/92 
f 93/93/93 95/95/95 96/96/96 94/94/94 
f 97/97/97 98/98/98 99/99/99 100/100/100 
f 98/98/98 101/101/101 102/102/102 103/103/103 99/99/99 
f 101/101/101 104/104/104 105/105/105 102/102/102 
f 104/104/104 106/106/106 107/107/107 108/108/108 105/105/105 
f 106/106/106 109/109/109 110/110/110 107/107/107 
f 111/111/111 112/112/112 113/113/113 114/114/114 
f 112/112/112 103/103/103 102/102/102 115/115/115 113/113/113 
f 102/102/102 105/105/105 116/116/116 115/115/115 
f 105/105/105 108/108/108 117/117/117 118/118/118 116/116/116 
f 117/117/117 119/119/119 120/120/120 118/118/118 
f 121/121/121 122/122/122 123/123/123 124/124/124 
f 122/122/122 125/125/125 126/126/126 123/123/123 
f 125/125/125 127/127/127 128/128/128 129/129/129 130/130/130 126/126/126 
f 127/127/127 131/131/131 132/132/132 128/128/128 
f 131/131/131 133/133/133 134/134/134 132/132/132 
f 135/135/135 136/136/136 137/137/137 138/138/138 
f 139/139/139 140/140/140 141/141/141 142/142/142 
f 140/140/140 130/130/130 129/129/129 143/143/143 144/144/144 141/141/141 
f 143/143/143 145/145/145 146/146/146 144/144/144 
f 145/145/145 147/147/147 148/148/148 146/146/146 
f 149/149/149 150/150/150 151/151/151 152/152/152 
f 150/150/150 153/153/153 154/154/154 151/151/151 
f 153/153/153 155/155/155 156/156/156 154/154/154 
f 155/155/155 157/157/157 158/158/158 156/156/156 
f 157/157/157 159/159/159 160/160/160 158/158/158 
f 161/161/161 162/162/162 163/163/163 164/164/164 
f 162/162/162 165/165/165 166/166/166 163/163/163 
f 165/165/165 167/167/167 168/168/168 166/166/166 
f 167/167/167 169/169/169 170/170/170 168/168/168 
f 169/169/169 171/171/171 172/172/172 170/170/170 
f 1/1/1 73/173/73 159/174/159 
f 37/37/37 172/175/172 90/176/90 
f 75/75/75 79/79/79 88/88/88 
f 87/87/87 171/177/171 160/178/160 76/76/76 
f 93/93/93 84/84/84 83/83/83 
f 96/96/96 114/179/114 47/180/47 
f 97/97/97 85/181/85 12/182/12 
f 100/100/100 111/111/111 95/183/95 86/184/86 
f 99/99/99 103/103/103 112/112/112 
f 117/117/117 108/108/108 107/107/107 
f 120/120/120 138/185/138 72/186/72 
f 121/121/121 109/187/109 36/188/36 
f 124/124/124 135/135/135 119/189/119 110/190/110 
f 126/126/126 130/130/130 140/140/140 
f 143/143/143 129/129/129 128/128/128 
f 148/148/148 164/191/164 68/192/68 
f 149/149/149 133/193/133 31/194/31 
f 152/152/152 161/161/161 147/195/147 134/196/134 
f 2/2/2 1/1/1 159/197/159 157/198/157 
f 1/1/1 4/4/4 74/199/74 73/200/73 
f 4/4/4 6/6/6 77/201/77 74/199/74 
f 6/6/6 8/8/8 80/202/80 77/201/77 
f 8/8/8 10/10/10 82/203/82 80/202/80 
f 12/12/12 11/11/11 98/204/98 97/205/97 
f 10/10/10 12/12/12 85/206/85 82/203/82 
f 13/13/13 2/2/2 157/157/157 155/155/155 
f 11/11/11 18/18/18 101/207/101 98/204/98 
f 19/19/19 13/13/13 155/208/155 153/209/153 
f 18/18/18 24/24/24 104/210/104 101/207/101 
f 25/25/25 19/19/19 153/209/153 150/211/150 
f 24/24/24 30/30/30 106/212/106 104/210/104 
f 31/31/31 25/25/25 150/211/150 149/213/149 
f 32/32/32 31/31/31 133/214/133 131/215/131 
f 33/33/33 32/32/32 131/215/131 127/216/127 
f 34/34/34 33/33/33 127/216/127 125/217/125 
f 35/35/35 34/34/34 125/217/125 122/218/122 
f 36/36/36 35/35/35 122/218/122 121/219/121 
f 30/30/30 36/36/36 109/220/109 106/212/106 
f 38/38/38 37/37/37 90/221/90 89/222/89 
f 37/37/37 40/40/40 170/223/170 172/224/172 
f 41/41/41 38/38/38 89/222/89 91/225/91 
f 43/43/43 41/41/41 91/91/91 92/92/92 
f 45/45/45 43/43/43 92/226/92 94/227/94 
f 47/47/47 45/45/45 94/227/94 96/228/96 
f 48/48/48 47/47/47 114/229/114 113/230/113 
f 40/40/40 50/50/50 168/231/168 170/223/170 
f 54/54/54 48/48/48 113/230/113 115/232/115 
f 50/50/50 56/56/56 166/166/166 168/168/168 
f 60/60/60 54/54/54 115/232/115 116/233/116 
f 56/56/56 62/62/62 163/234/163 166/235/166 
f 66/66/66 60/60/60 116/116/116 118/118/118 
f 68/68/68 67/67/67 146/236/146 148/237/148 
f 62/62/62 68/68/68 164/238/164 163/234/163 
f 67/67/67 69/69/69 144/239/144 146/236/146 
f 69/69/69 70/70/70 141/141/141 144/144/144 
f 70/70/70 71/71/71 142/240/142 141/241/141 
f 72/72/72 66/66/66 118/242/118 120/243/120 
f 71/71/71 72/72/72 138/244/138 137/245/137 
f 76/76/76 75/75/75 88/88/88 87/87/87 
f 73/73/73 76/76/76 160/178/160 159/246/159 
f 86/86/86 85/85/85 97/247/97 100/248/100 
f 83/83/83 86/86/86 95/95/95 93/93/93 
f 87/87/87 90/90/90 172/249/172 171/177/171 
f 96/96/96 95/95/95 111/250/111 114/251/114 
f 100/100/100 99/99/99 112/112/112 111/111/111 
f 110/110/110 109/109/109 121/252/121 124/253/124 
f 107/107/107 110/110/110 119/119/119 117/117/117 
f 120/120/120 119/119/119 135/254/135 138/255/138 
f 124/124/124 123/123/123 136/136/136 135/135/135 
f 123/123/123 126/126/126 140/140/140 139/139/139 
f 128/128/128 132/132/132 145/145/145 143/143/143 
f 134/134/134 133/133/133 149/256/149 152/257/152 
f 132/132/132 134/134/134 147/147/147 145/145/145 
f 137/137/137 136/136/136 139/139/139 142/142/142 
f 148/148/148 147/147/147 161/258/161 164/259/164 
f 152/152/152 151/151/151 162/162/162 161/161/161 
f 151/151/151 154/154/154 165/165/165 162/162/162 
f 154/154/154 156/156/156 167/167/167 165/165/165 
f 156/156/156 158/158/158 169/169/169 167/167/167 
f 158/158/158 160/160/160 171/171/171 169/169/169 
f 71/71/71 137/245/137 142/260/142 
f 123/123/123 139/139/139 136/136/136 
# 156 polygons - 16 triangles

