# 3ds Max Wavefront OBJ Exporter v0.99 - (c)2007 guruware
# File Created: 17.11.2021 09:40:32

mtllib Carretera.mtl

#
# object Carretera_recta
#

v  -25.1532 0.0000 5.0835
v  25.1532 0.0000 5.0835
v  25.1532 0.0000 -5.0835
v  -25.1532 0.0000 -5.0835
v  -25.1532 -1.6344 5.0835
v  -25.1532 -1.6344 -5.0835
v  25.1532 -1.6344 -5.0835
v  25.1532 -1.6344 5.0835
# 8 vertices

vn -0.5774 0.5774 0.5774
vn 0.5774 0.5774 0.5774
vn 0.5774 0.5774 -0.5774
vn -0.5774 0.5774 -0.5774
vn -0.5774 -0.5774 0.5774
vn -0.5774 -0.5774 -0.5774
vn 0.5774 -0.5774 -0.5774
vn 0.5774 -0.5774 0.5774
# 8 vertex normals

vt 0.0310 0.2206 0.0000
vt 0.9690 0.2206 0.0000
vt 0.9690 0.4101 0.0000
vt 0.0310 0.4101 0.0000
vt 0.0310 0.1901 0.0000
vt 0.0310 0.0005 0.0000
vt 0.9690 0.0005 0.0000
vt 0.9690 0.1901 0.0000
vt 0.9995 0.1901 0.0000
vt 0.9995 0.0005 0.0000
vt 0.9690 0.4406 0.0000
vt 0.0310 0.4406 0.0000
vt 0.0005 0.0005 0.0000
vt 0.0005 0.1901 0.0000
# 14 texture coords

o Carretera_recta
g Carretera_recta
usemtl wire_000000000
s 2
f 1/1/1 2/2/2 3/3/3 4/4/4 
s 4
f 5/5/5 6/6/6 7/7/7 8/8/8 
s 8
f 1/1/1 5/5/5 8/8/8 2/2/2 
s 16
f 2/9/2 8/8/8 7/7/7 3/10/3 
s 32
f 3/3/3 7/11/7 6/12/6 4/4/4 
s 64
f 4/13/4 6/6/6 5/5/5 1/14/1 
# 6 polygons

