# 3ds Max Wavefront OBJ Exporter v0.99 - (c)2007 guruware
# File Created: 24.11.2021 10:10:04

mtllib CartelCredit.mtl

#
# object Box033
#

v  9.8425 9.8425 -1.9685
v  9.8425 -9.8425 -1.9685
v  -9.8425 -9.8425 -1.9685
v  -9.8425 9.8425 -1.9685
v  9.8425 -9.8425 1.9685
v  9.8425 9.8425 1.9685
v  -9.8425 9.8425 1.9685
v  -9.8425 -9.8425 1.9685
# 8 vertices

vn 0.5774 0.5774 -0.5774
vn 0.5774 -0.5774 -0.5774
vn -0.5774 -0.5774 -0.5774
vn -0.5774 0.5774 -0.5774
vn 0.5774 -0.5774 0.5774
vn 0.5774 0.5774 0.5774
vn -0.5774 0.5774 0.5774
vn -0.5774 -0.5774 0.5774
# 8 vertex normals

vt 0.5000 0.5651 0.0000
vt 0.5000 0.1489 0.0000
vt 0.9163 0.1489 0.0000
vt 0.9163 0.5651 0.0000
vt 0.4167 0.1489 0.0000
vt 0.4167 0.5651 0.0000
vt 0.0005 0.5651 0.0000
vt 0.0005 0.1489 0.0000
vt 0.9163 0.6484 0.0000
vt 0.5000 0.6484 0.0000
vt 0.9995 0.1489 0.0000
vt 0.9995 0.5651 0.0000
vt 0.9163 0.0656 0.0000
vt 0.5000 0.0656 0.0000
# 14 texture coords

o Box033
g Box033
usemtl wire_153228214
s 2
f 1/1/1 2/2/2 3/3/3 4/4/4 
s 4
f 5/5/5 6/6/6 7/7/7 8/8/8 
s 16
f 2/2/2 1/1/1 6/6/6 5/5/5 
s 32
f 4/4/4 7/9/7 6/10/6 1/1/1 
s 64
f 4/4/4 3/3/3 8/11/8 7/12/7 
s 8
f 8/13/8 3/3/3 2/2/2 5/14/5 
# 6 polygons

