# 3ds Max Wavefront OBJ Exporter v0.99 - (c)2007 guruware
# File Created: 24.11.2021 09:43:29

mtllib CartelMenu.mtl

#
# object Box001
#

v  -1.5748 27.8230 -1.9685
v  1.5748 27.8230 -1.9685
v  1.5748 8.1380 -1.9685
v  -1.5748 8.1380 -1.9685
v  -1.5748 8.1380 1.9685
v  1.5748 8.1380 1.9685
v  1.5748 27.8230 1.9685
v  -1.5748 27.8230 1.9685
v  -0.8197 -27.8230 -1.2134
v  0.8197 -27.8230 -1.2134
v  0.8197 -27.8230 1.2134
v  -0.8197 -27.8230 1.2134
v  9.8425 8.1380 -1.9685
v  9.8425 27.8230 -1.9685
v  9.8425 27.8230 1.9685
v  9.8425 8.1380 1.9685
v  -9.8425 27.8230 -1.9685
v  -9.8425 8.1380 -1.9685
v  -9.8425 8.1380 1.9685
v  -9.8425 27.8230 1.9685
v  0.8197 8.1380 -1.2134
v  -0.8197 8.1380 -1.2134
v  0.8197 8.1380 1.2134
v  -0.8197 8.1380 1.2134
# 24 vertices

vn 0.0000 0.7071 -0.7071
vn -0.0000 -0.7071 -0.7071
vn 0.0000 -0.7071 -0.7071
vn -0.0000 -0.7071 0.7071
vn 0.0000 -0.7071 0.7071
vn 0.0000 0.7071 0.7071
vn -0.5774 -0.5773 -0.5774
vn 0.5774 -0.5773 -0.5774
vn 0.5774 -0.5774 0.5773
vn -0.5774 -0.5774 0.5773
vn 0.5774 -0.5774 -0.5774
vn 0.5774 0.5774 -0.5774
vn 0.5774 0.5774 0.5774
vn 0.5774 -0.5774 0.5774
vn -0.5774 0.5774 -0.5774
vn -0.5774 -0.5774 -0.5774
vn -0.5774 -0.5774 0.5774
vn -0.5774 0.5774 0.5774
vn 0.3015 -0.9045 -0.3015
vn -0.3015 -0.9045 -0.3015
vn 0.3015 -0.9045 0.3015
vn -0.3015 -0.9045 0.3015
# 22 vertex normals

vt 0.7414 0.4955 0.0000
vt 0.6748 0.4955 0.0000
vt 0.6748 0.0792 0.0000
vt 0.7414 0.0792 0.0000
vt 0.1753 0.0792 0.0000
vt 0.2419 0.0792 0.0000
vt 0.2419 0.4955 0.0000
vt 0.1753 0.4955 0.0000
vt 0.7609 0.7210 0.0000
vt 0.7609 0.6864 0.0000
vt 0.8122 0.6864 0.0000
vt 0.8122 0.7210 0.0000
vt 0.5000 0.0792 0.0000
vt 0.5000 0.4955 0.0000
vt 0.4167 0.4955 0.0000
vt 0.4167 0.0792 0.0000
vt 0.7414 0.5787 0.0000
vt 0.6748 0.5787 0.0000
vt 0.9163 0.4955 0.0000
vt 0.9163 0.0792 0.0000
vt 0.9995 0.0792 0.0000
vt 0.9995 0.4955 0.0000
vt 0.0005 0.4955 0.0000
vt 0.0005 0.0792 0.0000
vt 0.5000 -0.0040 0.0000
vt 0.6748 -0.0040 0.0000
vt 0.7414 -0.0040 0.0000
vt 0.9163 -0.0040 0.0000
vt 0.9163 0.5787 0.0000
vt 0.5000 0.5787 0.0000
vt 0.6908 0.0633 0.0000
vt 0.7255 0.0633 0.0000
vt 0.6908 0.0119 0.0000
vt 0.7255 0.0119 0.0000
vt 0.0005 0.7210 0.0000
vt 0.0005 0.6864 0.0000
vt 0.0005 0.6350 0.0000
vt 0.7609 0.6350 0.0000
vt 0.0005 0.8070 0.0000
vt 0.0005 0.7723 0.0000
vt 0.7609 0.7723 0.0000
vt 0.7609 0.8070 0.0000
# 42 texture coords

o Box001
g Box001
usemtl wire_153228214
s 2
f 1/1/1 2/2/1 3/3/2 4/4/3 
s 4
f 5/5/4 6/6/5 7/7/6 8/8/6 
s 8
f 9/9/7 10/10/8 11/11/9 12/12/10 
s 16
f 13/13/11 14/14/12 15/15/13 16/16/14 
s 32
f 2/2/1 1/1/1 8/17/6 7/18/6 
s 64
f 17/19/15 18/20/16 19/21/17 20/22/18 
s 2
f 2/2/1 14/14/12 13/13/11 3/3/2 
f 4/4/3 18/20/16 17/19/15 1/1/1 
s 4
f 6/6/5 16/16/14 15/15/13 7/7/6 
f 8/8/6 20/23/18 19/24/17 5/5/4 
s 8
f 3/3/2 13/13/11 16/25/14 6/26/5 
f 5/27/4 19/28/17 18/20/16 4/4/3 
s 32
f 1/1/1 17/19/15 20/29/18 8/17/6 
f 7/18/6 15/30/13 14/14/12 2/2/1 
s off
f 4/4/3 3/3/2 21/31/19 22/32/20 
f 3/3/2 6/26/5 23/33/21 21/31/19 
f 6/26/5 5/27/4 24/34/22 23/33/21 
f 5/27/4 4/4/3 22/32/20 24/34/22 
f 22/35/20 21/36/19 10/10/8 9/9/7 
f 21/36/19 23/37/21 11/38/9 10/10/8 
f 23/39/21 24/40/22 12/41/10 11/42/9 
f 24/40/22 22/35/20 9/9/7 12/41/10 
# 22 polygons

