# 3ds Max Wavefront OBJ Exporter v0.99 - (c)2007 guruware
# File Created: 17.11.2021 10:14:15

mtllib CuadroSol.mtl

#
# object Box001
#

v  62.7026 124.8026 -7.0823
v  62.7026 124.8026 7.0823
v  62.7026 44.1314 7.0823
v  62.7026 44.1314 -7.0823
v  -50.2927 135.7096 -7.0823
v  -50.2927 135.7096 7.0823
v  50.2927 135.7096 7.0823
v  50.2927 135.7096 -7.0823
v  -62.7026 44.1314 -7.0823
v  -62.7026 44.1314 7.0823
v  -62.7026 124.8026 7.0823
v  -62.7026 124.8026 -7.0823
v  50.2927 124.8026 -7.0823
v  -50.2927 124.8026 -7.0823
v  -50.2927 124.8026 7.0823
v  50.2927 124.8026 7.0823
v  62.7026 135.7096 -7.0823
v  62.7026 135.7096 7.0823
v  62.7026 33.2244 7.0823
v  62.7026 33.2244 -7.0823
v  -62.7026 33.2244 -7.0823
v  -62.7026 33.2244 7.0823
v  -62.7026 135.7096 7.0823
v  -62.7026 135.7096 -7.0823
v  50.2927 44.1314 -7.0823
v  -50.2927 44.1314 -7.0823
v  -50.2927 44.1314 7.0823
v  50.2927 44.1314 7.0823
v  -50.2927 33.2244 -7.0823
v  50.2927 33.2244 -7.0823
v  50.2927 33.2244 7.0823
v  -50.2927 33.2244 7.0823
v  38.4739 33.2244 7.0823
v  38.4739 33.2244 -7.0823
v  -38.4739 33.2244 -7.0823
v  -38.4739 33.2244 7.0823
v  -38.4739 44.1314 -7.0823
v  38.4739 44.1314 -7.0823
v  38.4739 44.1314 7.0823
v  -38.4739 44.1314 7.0823
v  60.0118 33.2244 -4.3915
v  52.9835 33.2244 -4.3915
v  60.0118 33.2244 4.3915
v  52.9835 33.2244 4.3915
v  -60.0118 33.2244 4.3915
v  -52.9835 33.2244 4.3915
v  -60.0118 33.2244 -4.3915
v  -52.9835 33.2244 -4.3915
v  60.0118 -135.7096 -4.3916
v  52.9835 -135.7096 -4.3916
v  60.0118 -135.7096 4.3914
v  52.9835 -135.7096 4.3914
v  -60.0118 -135.7096 4.3914
v  -52.9835 -135.7096 4.3914
v  -60.0118 -135.7096 -4.3916
v  -52.9835 -135.7096 -4.3916
# 56 vertices

vn 1.0000 0.0000 -0.0000
vn 0.0000 1.0000 0.0000
vn -1.0000 0.0000 -0.0000
vn 0.0000 0.0000 -1.0000
vn 0.0000 -0.0000 1.0000
vn 0.0000 -1.0000 -0.0000
# 6 vertex normals

vt 0.5020 0.8974 0.0000
vt 0.4515 0.8974 0.0000
vt 0.4515 0.6099 0.0000
vt 0.5020 0.6099 0.0000
vt 0.0487 0.9868 0.0000
vt 0.0487 0.9363 0.0000
vt 0.4073 0.9363 0.0000
vt 0.4073 0.9868 0.0000
vt 0.9490 0.6099 0.0000
vt 0.9995 0.6099 0.0000
vt 0.9995 0.8974 0.0000
vt 0.9490 0.8974 0.0000
vt 0.5462 0.9363 0.0000
vt 0.5462 0.8974 0.0000
vt 0.9048 0.8974 0.0000
vt 0.9048 0.9363 0.0000
vt 0.0487 0.8974 0.0000
vt 0.4073 0.8974 0.0000
vt 0.5020 0.9363 0.0000
vt 0.4515 0.9363 0.0000
vt 0.4515 0.5710 0.0000
vt 0.5020 0.5710 0.0000
vt 0.9490 0.5710 0.0000
vt 0.9995 0.5710 0.0000
vt 0.9995 0.9363 0.0000
vt 0.9490 0.9363 0.0000
vt 0.5462 0.6099 0.0000
vt 0.9048 0.6099 0.0000
vt 0.0045 0.8974 0.0000
vt 0.0045 0.6099 0.0000
vt 0.0487 0.6099 0.0000
vt 0.4073 0.6099 0.0000
vt 0.0045 0.9868 0.0000
vt 0.0045 0.9363 0.0000
vt 0.4515 0.9868 0.0000
vt 0.9048 0.5710 0.0000
vt 0.5462 0.5710 0.0000
vt 0.4073 0.5710 0.0000
vt 0.0045 0.5710 0.0000
vt 0.0487 0.5710 0.0000
vt 0.5031 0.0332 0.0000
vt 0.8524 0.0332 0.0000
vt 0.8524 0.0945 0.0000
vt 0.5031 0.0945 0.0000
vt 0.8524 0.4995 0.0000
vt 0.5031 0.4995 0.0000
vt 0.5031 0.4382 0.0000
vt 0.8524 0.4382 0.0000
vt 0.0487 0.8469 0.0000
vt 0.4073 0.8469 0.0000
vt 0.4073 0.5205 0.0000
vt 0.3651 0.5710 0.0000
vt 0.3651 0.5205 0.0000
vt 0.0487 0.5205 0.0000
vt 0.0908 0.5205 0.0000
vt 0.0908 0.5710 0.0000
vt 0.8626 0.6099 0.0000
vt 0.8626 0.5710 0.0000
vt 0.5884 0.5710 0.0000
vt 0.5884 0.6099 0.0000
vt 0.3651 0.6099 0.0000
vt 0.0917 0.6099 0.0000
vt 0.0487 0.6604 0.0000
vt 0.0917 0.6604 0.0000
vt 0.4073 0.6604 0.0000
vt 0.3651 0.6604 0.0000
vt 0.1305 0.6604 0.0000
vt 0.1305 0.6099 0.0000
vt 0.3262 0.6099 0.0000
vt 0.3262 0.6604 0.0000
vt 0.4515 0.5205 0.0000
vt 0.4419 0.5301 0.0000
vt 0.4168 0.5301 0.0000
vt 0.4419 0.5614 0.0000
vt 0.4168 0.5614 0.0000
vt 0.0141 0.5614 0.0000
vt 0.0391 0.5614 0.0000
vt 0.0045 0.5205 0.0000
vt 0.0141 0.5301 0.0000
vt 0.0391 0.5301 0.0000
vt 0.1209 0.4353 0.0000
vt 0.1209 0.4049 0.0000
vt 0.8524 0.4049 0.0000
vt 0.8524 0.4353 0.0000
vt 0.1209 0.3668 0.0000
vt 0.8524 0.3668 0.0000
vt 0.1209 0.3364 0.0000
vt 0.8524 0.3364 0.0000
vt 0.1209 0.2983 0.0000
vt 0.8524 0.2983 0.0000
vt 0.1209 0.2174 0.0000
vt 0.1209 0.1869 0.0000
vt 0.8524 0.1869 0.0000
vt 0.8524 0.2174 0.0000
vt 0.1209 0.1489 0.0000
vt 0.8524 0.1489 0.0000
vt 0.1209 0.2858 0.0000
vt 0.1209 0.2554 0.0000
vt 0.8524 0.2554 0.0000
vt 0.8524 0.2858 0.0000
# 100 texture coords

o Box001
g Box001
usemtl wire_087225087
s off
f 1/1/1 2/2/1 3/3/1 4/4/1 
f 5/5/2 6/6/2 7/7/2 8/8/2 
f 9/9/3 10/10/3 11/11/3 12/12/3 
f 8/13/4 13/14/4 14/15/4 5/16/4 
f 6/6/5 15/17/5 16/18/5 7/7/5 
f 17/19/1 18/20/1 2/2/1 1/1/1 
f 19/21/1 20/22/1 4/4/1 3/3/1 
f 21/23/3 22/24/3 10/10/3 9/9/3 
f 23/25/3 24/26/3 12/12/3 11/11/3 
f 1/1/4 4/4/4 25/27/4 13/14/4 
f 9/9/4 12/12/4 14/15/4 26/28/4 
f 11/29/5 10/30/5 27/31/5 15/17/5 
f 3/3/5 2/2/5 16/18/5 28/32/5 
f 24/33/2 23/34/2 6/6/2 5/5/2 
f 18/20/2 17/35/2 8/8/2 7/7/2 
f 17/19/4 1/1/4 13/14/4 8/13/4 
f 12/12/4 24/26/4 5/16/4 14/15/4 
f 21/23/4 9/9/4 26/28/4 29/36/4 
f 4/4/4 20/22/4 30/37/4 25/27/4 
f 23/34/5 11/29/5 15/17/5 6/6/5 
f 2/2/5 18/20/5 7/7/5 16/18/5 
f 19/21/5 3/3/5 28/32/5 31/38/5 
f 10/30/5 22/39/5 32/40/5 27/31/5 
f 13/41/3 25/42/3 28/43/3 16/44/3 
f 26/45/1 14/46/1 15/47/1 27/48/1 
f 14/49/6 13/50/6 16/18/6 15/17/6 
f 30/51/6 31/38/6 33/52/6 34/53/6 
f 32/40/6 29/54/6 35/55/6 36/56/6 
f 29/36/4 26/28/4 37/57/4 35/58/4 
f 25/27/4 30/37/4 34/59/4 38/60/4 
f 31/38/5 28/32/5 39/61/5 33/52/5 
f 27/31/5 32/40/5 36/56/5 40/62/5 
f 26/63/2 27/31/2 40/62/2 37/64/2 
f 28/32/2 25/65/2 38/66/2 39/61/2 
f 35/67/1 37/64/1 40/62/1 36/68/1 
f 33/69/3 39/61/3 38/66/3 34/70/3 
f 30/51/6 20/71/6 41/72/6 42/73/6 
f 20/71/6 19/21/6 43/74/6 41/72/6 
f 19/21/6 31/38/6 44/75/6 43/74/6 
f 31/38/6 30/51/6 42/73/6 44/75/6 
f 32/40/6 22/39/6 45/76/6 46/77/6 
f 22/39/6 21/78/6 47/79/6 45/76/6 
f 21/78/6 29/54/6 48/80/6 47/79/6 
f 29/54/6 32/40/6 46/77/6 48/80/6 
f 42/81/4 41/82/4 49/83/4 50/84/4 
f 41/82/1 43/85/1 51/86/1 49/83/1 
f 43/85/5 44/87/5 52/88/5 51/86/5 
f 44/87/3 42/89/3 50/90/3 52/88/3 
f 46/91/5 45/92/5 53/93/5 54/94/5 
f 45/92/3 47/95/3 55/96/3 53/93/3 
f 47/97/4 48/98/4 56/99/4 55/100/4 
f 48/98/1 46/91/1 54/94/1 56/99/1 
# 52 polygons

