# 3ds Max Wavefront OBJ Exporter v0.99 - (c)2007 guruware
# File Created: 17.11.2021 08:57:40

mtllib CuboLetras.mtl

#
# object CuboLetras_01
#

v  -5.5615 0.0001 1.9685
v  -1.9685 0.0020 1.9685
v  -1.9685 0.0004 5.5615
v  -5.5615 0.0002 5.5615
v  1.9685 0.0161 1.9685
v  1.9685 0.0019 5.5615
v  5.5615 0.0524 1.9685
v  5.5615 0.0014 5.5615
v  -5.5615 0.0001 -1.9685
v  -1.9685 0.0010 -1.9685
v  1.9685 0.0081 -1.9685
v  5.5615 0.0256 -1.9685
v  -5.5615 0.0001 -5.5615
v  -1.9685 0.0002 -5.5615
v  1.9685 0.0010 -5.5615
v  5.5615 0.0007 -5.5615
v  -1.9726 11.7509 5.5148
v  -1.9511 11.7770 1.9547
v  -5.5029 11.7581 1.9736
v  -5.5563 11.8080 5.5573
v  1.9705 11.7822 5.5382
v  1.9707 11.8000 1.9616
v  5.5615 11.8101 5.5595
v  5.5615 11.8098 1.9685
v  -1.9337 11.7767 -1.9702
v  -5.4444 11.7065 -1.9786
v  1.9728 11.8059 -1.9694
v  5.5615 11.8106 -1.9685
v  -1.9685 11.8070 -5.5615
v  -5.5512 11.8081 -5.5615
v  1.9685 11.8100 -5.5615
v  5.5615 11.8106 -5.5615
v  -1.9685 0.3440 5.9049
v  -1.9685 3.9348 5.9015
v  -5.5615 3.9370 5.9050
v  -5.5615 0.3440 5.9052
v  1.9685 0.3440 5.9032
v  1.9685 3.9359 5.8860
v  5.5615 0.3440 5.9038
v  5.5615 3.9370 5.8450
v  -1.9685 7.8561 5.8905
v  -5.5615 7.8740 5.9037
v  1.9685 7.8650 5.8893
v  5.5615 7.8740 5.8752
v  -1.9659 11.4065 5.8604
v  -5.5615 11.4617 5.9042
v  1.9711 11.4367 5.8825
v  5.5615 11.4644 5.9041
v  5.9053 0.3984 1.9733
v  5.9045 3.9532 1.9505
v  5.9054 3.9398 5.4987
v  5.9054 0.3489 5.5559
v  5.9045 0.3712 -1.9709
v  5.8974 3.9451 -1.9659
v  5.9048 0.3464 -5.5601
v  5.8799 3.9356 -5.5450
v  5.9035 7.8760 1.9604
v  5.9054 7.8768 5.5301
v  5.8894 7.8750 -1.9599
v  5.8531 7.8726 -5.5284
v  5.9051 11.4670 1.9685
v  5.9053 11.4670 5.5588
v  5.9036 11.4670 -1.9685
v  5.9041 11.4670 -5.5586
v  1.9685 0.3440 -5.9041
v  1.9605 3.9370 -5.8969
v  5.5342 3.9346 -5.8898
v  5.5591 0.3440 -5.9048
v  -1.9685 0.3440 -5.9018
v  -1.9692 3.9370 -5.8753
v  -5.5615 0.3440 -5.9029
v  -5.5605 3.9370 -5.8095
v  1.9524 7.8740 -5.8939
v  5.5070 7.8788 -5.8735
v  -1.9704 7.8740 -5.8895
v  -5.5610 7.8740 -5.8586
v  1.9685 11.4670 -5.9039
v  5.5567 11.4670 -5.9045
v  -1.9685 11.4670 -5.9035
v  -5.5615 11.4670 -5.9041
v  -5.9052 0.3440 -1.9685
v  -5.9009 3.9330 -1.9389
v  -5.9035 3.9414 -5.4617
v  -5.9051 0.3440 -5.5527
v  -5.9053 0.3440 1.9685
v  -5.9033 3.9350 1.9722
v  -5.9053 0.3440 5.5615
v  -5.9050 3.9370 5.5615
v  -5.8706 7.8419 -1.9537
v  -5.9008 7.8784 -5.5117
v  -5.8881 7.8580 1.9704
v  -5.9034 7.8740 5.5615
v  -5.7928 11.3588 -1.9638
v  -5.9025 11.4574 -5.5570
v  -5.8505 11.4129 1.9732
v  -5.9040 11.4623 5.5615
# 96 vertices

vn -0.0294 -0.9996 0.0000
vn 0.0021 -1.0000 -0.0001
vn 0.0002 -0.9996 0.0295
vn -0.0293 -0.9991 0.0293
vn 0.0068 -1.0000 -0.0010
vn 0.0001 -0.9997 0.0261
vn 0.0253 -0.9997 -0.0036
vn 0.0097 -0.9998 0.0162
vn -0.0297 -0.9996 0.0000
vn 0.0010 -1.0000 0.0002
vn 0.0033 -1.0000 0.0020
vn 0.0254 -0.9997 0.0069
vn -0.0290 -0.9991 -0.0294
vn 0.0001 -0.9996 -0.0298
vn 0.0001 -0.9996 -0.0280
vn 0.0201 -0.9995 -0.0228
vn -0.0050 0.9992 0.0406
vn -0.0056 1.0000 0.0036
vn -0.0284 0.9995 -0.0139
vn -0.1457 0.9874 0.0624
vn -0.0080 0.9995 0.0309
vn -0.0043 1.0000 0.0032
vn 0.0296 0.9992 0.0254
vn 0.0351 0.9994 0.0001
vn -0.0137 0.9999 0.0042
vn -0.0526 0.9986 -0.0081
vn -0.0044 1.0000 0.0013
vn 0.0365 0.9993 0.0001
vn -0.0002 0.9997 -0.0251
vn -0.0712 0.9788 -0.1919
vn -0.0005 0.9993 -0.0365
vn 0.0365 0.9987 -0.0364
vn 0.0003 -0.0290 0.9996
vn 0.0025 0.0019 1.0000
vn -0.0290 0.0002 0.9996
vn -0.0293 -0.0293 0.9991
vn 0.0001 -0.0253 0.9997
vn 0.0077 0.0020 1.0000
vn 0.0097 -0.0141 0.9999
vn 0.0267 0.0043 0.9996
vn 0.0020 0.0056 1.0000
vn -0.0264 0.0001 0.9997
vn 0.0021 0.0005 1.0000
vn 0.0245 -0.0079 0.9997
vn 0.0033 0.0236 0.9997
vn -0.0183 0.0099 0.9998
vn -0.0060 0.0225 0.9997
vn 0.0146 0.0127 0.9998
vn 0.9999 -0.0151 -0.0001
vn 1.0000 0.0002 -0.0010
vn 0.9999 -0.0000 0.0151
vn 0.9999 -0.0103 0.0103
vn 0.9998 -0.0187 0.0001
vn 1.0000 0.0020 -0.0034
vn 0.9997 -0.0139 -0.0206
vn 0.9996 0.0070 -0.0256
vn 1.0000 -0.0001 -0.0021
vn 0.9998 -0.0001 0.0201
vn 1.0000 -0.0010 -0.0069
vn 0.9997 -0.0037 -0.0254
vn 0.9996 0.0297 -0.0002
vn 0.9993 0.0299 0.0203
vn 0.9997 0.0262 -0.0001
vn 0.9998 0.0165 -0.0099
vn -0.0004 -0.0280 -0.9996
vn -0.0018 0.0014 -1.0000
vn 0.0226 0.0043 -0.9997
vn 0.0202 -0.0257 -0.9995
vn -0.0001 -0.0226 -0.9997
vn -0.0119 0.0019 -0.9999
vn -0.0097 -0.0046 -0.9999
vn -0.0335 0.0067 -0.9994
vn 0.0023 -0.0010 -1.0000
vn 0.0210 -0.0022 -0.9998
vn -0.0049 -0.0037 -1.0000
vn -0.0292 -0.0126 -0.9995
vn -0.0001 0.0271 -0.9996
vn 0.0099 0.0218 -0.9997
vn 0.0000 0.0262 -0.9997
vn -0.0199 0.0170 -0.9997
vn -0.9995 -0.0324 -0.0000
vn -1.0000 0.0045 0.0001
vn -0.9999 0.0006 -0.0164
vn -0.9994 -0.0338 -0.0114
vn -0.9995 -0.0331 -0.0000
vn -1.0000 0.0022 -0.0006
vn -0.9989 -0.0328 0.0328
vn -0.9995 0.0002 0.0331
vn -0.9999 0.0153 0.0021
vn -0.9999 -0.0000 -0.0122
vn -1.0000 0.0072 -0.0044
vn -0.9996 0.0001 0.0294
vn -0.9986 0.0520 -0.0099
vn -0.9881 0.0766 -0.1332
vn -0.9993 0.0336 -0.0152
vn -0.9996 0.0228 0.0187
# 96 vertex normals

vt 0.9922 0.3335 0.0000
vt 0.9163 0.3335 0.0000
vt 0.9163 0.2575 0.0000
vt 0.9922 0.2575 0.0000
vt 0.8330 0.3335 0.0000
vt 0.8330 0.2575 0.0000
vt 0.7570 0.3335 0.0000
vt 0.7570 0.2575 0.0000
vt 0.9922 0.4167 0.0000
vt 0.9163 0.4167 0.0000
vt 0.8330 0.4167 0.0000
vt 0.7570 0.4167 0.0000
vt 0.9922 0.4927 0.0000
vt 0.9163 0.4927 0.0000
vt 0.8330 0.4927 0.0000
vt 0.7570 0.4927 0.0000
vt 0.3335 0.2576 0.0000
vt 0.3335 0.3335 0.0000
vt 0.2576 0.3335 0.0000
vt 0.2576 0.2576 0.0000
vt 0.4168 0.2576 0.0000
vt 0.4168 0.3335 0.0000
vt 0.4927 0.2575 0.0000
vt 0.4927 0.3335 0.0000
vt 0.3335 0.4167 0.0000
vt 0.2577 0.4167 0.0000
vt 0.4168 0.4167 0.0000
vt 0.4927 0.4167 0.0000
vt 0.3335 0.4927 0.0000
vt 0.2575 0.4927 0.0000
vt 0.4168 0.4927 0.0000
vt 0.4927 0.4927 0.0000
vt 0.3335 0.0078 0.0000
vt 0.3335 0.0837 0.0000
vt 0.2575 0.0837 0.0000
vt 0.2575 0.0078 0.0000
vt 0.4168 0.0078 0.0000
vt 0.4168 0.0837 0.0000
vt 0.4927 0.0078 0.0000
vt 0.4927 0.0837 0.0000
vt 0.3335 0.1670 0.0000
vt 0.2575 0.1670 0.0000
vt 0.4168 0.1670 0.0000
vt 0.4927 0.1670 0.0000
vt 0.3335 0.2429 0.0000
vt 0.2575 0.2430 0.0000
vt 0.4168 0.2429 0.0000
vt 0.4927 0.2429 0.0000
vt 0.7424 0.3335 0.0000
vt 0.6665 0.3335 0.0000
vt 0.6665 0.2576 0.0000
vt 0.7424 0.2576 0.0000
vt 0.7424 0.4167 0.0000
vt 0.6665 0.4167 0.0000
vt 0.7425 0.4927 0.0000
vt 0.6665 0.4927 0.0000
vt 0.5833 0.3335 0.0000
vt 0.5833 0.2576 0.0000
vt 0.5833 0.4167 0.0000
vt 0.5833 0.4927 0.0000
vt 0.5073 0.3335 0.0000
vt 0.5073 0.2575 0.0000
vt 0.5073 0.4167 0.0000
vt 0.5073 0.4927 0.0000
vt 0.4168 0.7425 0.0000
vt 0.4168 0.6665 0.0000
vt 0.4927 0.6665 0.0000
vt 0.4927 0.7425 0.0000
vt 0.3335 0.7425 0.0000
vt 0.3335 0.6665 0.0000
vt 0.2575 0.7425 0.0000
vt 0.2575 0.6665 0.0000
vt 0.4168 0.5832 0.0000
vt 0.4927 0.5832 0.0000
vt 0.3335 0.5832 0.0000
vt 0.2575 0.5832 0.0000
vt 0.4168 0.5073 0.0000
vt 0.4927 0.5073 0.0000
vt 0.3335 0.5073 0.0000
vt 0.2575 0.5073 0.0000
vt 0.0078 0.4167 0.0000
vt 0.0838 0.4167 0.0000
vt 0.0838 0.4926 0.0000
vt 0.0078 0.4926 0.0000
vt 0.0078 0.3335 0.0000
vt 0.0838 0.3335 0.0000
vt 0.0078 0.2575 0.0000
vt 0.0838 0.2575 0.0000
vt 0.1670 0.4167 0.0000
vt 0.1670 0.4927 0.0000
vt 0.1670 0.3335 0.0000
vt 0.1670 0.2575 0.0000
vt 0.2428 0.4167 0.0000
vt 0.2430 0.4927 0.0000
vt 0.2429 0.3335 0.0000
vt 0.2429 0.2575 0.0000
vt 0.9933 0.2502 0.0000
vt 0.9995 0.2564 0.0000
vt 0.7559 0.2502 0.0000
vt 0.5000 0.7435 0.0000
vt 0.4938 0.7497 0.0000
vt 0.0067 0.5000 0.0000
vt 0.0005 0.4939 0.0000
vt 0.9995 0.2575 0.0000
vt 0.9995 0.3335 0.0000
vt 0.9163 0.2502 0.0000
vt 0.9922 0.2502 0.0000
vt 0.8330 0.2502 0.0000
vt 0.7570 0.2502 0.0000
vt 0.9995 0.4167 0.0000
vt 0.9995 0.4927 0.0000
vt 0.9922 0.5000 0.0000
vt 0.9163 0.5000 0.0000
vt 0.8330 0.5000 0.0000
vt 0.7570 0.5000 0.0000
vt 0.2503 0.0837 0.0000
vt 0.2503 0.0078 0.0000
vt 0.5000 0.0078 0.0000
vt 0.5000 0.0837 0.0000
vt 0.2503 0.1670 0.0000
vt 0.5000 0.1670 0.0000
vt 0.2503 0.2430 0.0000
vt 0.5000 0.2430 0.0000
vt 0.7425 0.5000 0.0000
vt 0.6665 0.5000 0.0000
vt 0.5833 0.5000 0.0000
vt 0.5073 0.5000 0.0000
vt 0.2503 0.7425 0.0000
vt 0.2503 0.6665 0.0000
vt 0.2503 0.5832 0.0000
vt 0.2503 0.5073 0.0000
# 131 texture coords

o CuboLetras_01
g CuboLetras_01
usemtl wire_028028177
s off
f 1/1/1 2/2/2 3/3/3 4/4/4 
f 2/2/2 5/5/5 6/6/6 3/3/3 
f 5/5/5 7/7/7 8/8/8 6/6/6 
f 9/9/9 10/10/10 2/2/2 1/1/1 
f 2/2/2 10/10/10 11/11/11 5/5/5 
f 11/11/11 12/12/12 7/7/7 5/5/5 
f 13/13/13 14/14/14 10/10/10 9/9/9 
f 14/14/14 15/15/15 11/11/11 10/10/10 
f 15/15/15 16/16/16 12/12/12 11/11/11 
f 17/17/17 18/18/18 19/19/19 20/20/20 
f 21/21/21 22/22/22 18/18/18 17/17/17 
f 23/23/23 24/24/24 22/22/22 21/21/21 
f 18/18/18 25/25/25 26/26/26 19/19/19 
f 18/18/18 22/22/22 27/27/27 25/25/25 
f 24/24/24 28/28/28 27/27/27 22/22/22 
f 26/26/26 25/25/25 29/29/29 30/30/30 
f 25/25/25 27/27/27 31/31/31 29/29/29 
f 28/28/28 32/32/32 31/31/31 27/27/27 
f 33/33/33 34/34/34 35/35/35 36/36/36 
f 37/37/37 38/38/38 34/34/34 33/33/33 
f 39/39/39 40/40/40 38/38/38 37/37/37 
f 34/34/34 41/41/41 42/42/42 35/35/35 
f 34/34/34 38/38/38 43/43/43 41/41/41 
f 40/40/40 44/44/44 43/43/43 38/38/38 
f 42/42/42 41/41/41 45/45/45 46/46/46 
f 43/43/43 47/47/47 45/45/45 41/41/41 
f 44/44/44 48/48/48 47/47/47 43/43/43 
f 49/49/49 50/50/50 51/51/51 52/52/52 
f 53/53/53 54/54/54 50/50/50 49/49/49 
f 53/53/53 55/55/55 56/56/56 54/54/54 
f 50/50/50 57/57/57 58/58/58 51/51/51 
f 50/50/50 54/54/54 59/59/59 57/57/57 
f 56/56/56 60/60/60 59/59/59 54/54/54 
f 58/58/58 57/57/57 61/61/61 62/62/62 
f 59/59/59 63/63/63 61/61/61 57/57/57 
f 60/60/60 64/64/64 63/63/63 59/59/59 
f 65/65/65 66/66/66 67/67/67 68/68/68 
f 69/69/69 70/70/70 66/66/66 65/65/65 
f 71/71/71 72/72/72 70/70/70 69/69/69 
f 66/66/66 73/73/73 74/74/74 67/67/67 
f 66/66/66 70/70/70 75/75/75 73/73/73 
f 72/72/72 76/76/76 75/75/75 70/70/70 
f 74/74/74 73/73/73 77/77/77 78/78/78 
f 75/75/75 79/79/79 77/77/77 73/73/73 
f 76/76/76 80/80/80 79/79/79 75/75/75 
f 81/81/81 82/82/82 83/83/83 84/84/84 
f 85/85/85 86/86/86 82/82/82 81/81/81 
f 87/87/87 88/88/88 86/86/86 85/85/85 
f 83/83/83 82/82/82 89/89/89 90/90/90 
f 82/82/82 86/86/86 91/91/91 89/89/89 
f 88/88/88 92/92/92 91/91/91 86/86/86 
f 90/90/90 89/89/89 93/93/93 94/94/94 
f 91/91/91 95/95/95 93/93/93 89/89/89 
f 92/92/92 96/96/96 95/95/95 91/91/91 
f 4/4/4 36/97/36 87/98/87 
f 20/20/20 96/96/96 46/46/46 
f 48/48/48 62/62/62 23/23/23 
f 52/52/52 39/99/39 8/8/8 
f 64/64/64 78/78/78 32/32/32 
f 68/68/68 55/100/55 16/101/16 
f 80/80/80 94/94/94 30/30/30 
f 84/84/84 71/102/71 13/103/13 
f 1/1/1 4/4/4 87/104/87 85/105/85 
f 4/4/4 3/3/3 33/106/33 36/107/36 
f 3/3/3 6/6/6 37/108/37 33/106/33 
f 8/8/8 7/7/7 49/49/49 52/52/52 
f 6/6/6 8/8/8 39/109/39 37/108/37 
f 9/9/9 1/1/1 85/105/85 81/110/81 
f 7/7/7 12/12/12 53/53/53 49/49/49 
f 13/13/13 9/9/9 81/110/81 84/111/84 
f 14/14/14 13/13/13 71/112/71 69/113/69 
f 15/15/15 14/14/14 69/113/69 65/114/65 
f 16/16/16 15/15/15 65/114/65 68/115/68 
f 12/12/12 16/16/16 55/55/55 53/53/53 
f 17/17/17 20/20/20 46/46/46 45/45/45 
f 20/20/20 19/19/19 95/95/95 96/96/96 
f 21/21/21 17/17/17 45/45/45 47/47/47 
f 23/23/23 21/21/21 47/47/47 48/48/48 
f 24/24/24 23/23/23 62/62/62 61/61/61 
f 19/19/19 26/26/26 93/93/93 95/95/95 
f 28/28/28 24/24/24 61/61/61 63/63/63 
f 30/30/30 29/29/29 79/79/79 80/80/80 
f 26/26/26 30/30/30 94/94/94 93/93/93 
f 29/29/29 31/31/31 77/77/77 79/79/79 
f 32/32/32 28/28/28 63/63/63 64/64/64 
f 31/31/31 32/32/32 78/78/78 77/77/77 
f 36/36/36 35/35/35 88/116/88 87/117/87 
f 40/40/40 39/39/39 52/118/52 51/119/51 
f 35/35/35 42/42/42 92/120/92 88/116/88 
f 44/44/44 40/40/40 51/119/51 58/121/58 
f 42/42/42 46/46/46 96/122/96 92/120/92 
f 48/48/48 44/44/44 58/121/58 62/123/62 
f 56/56/56 55/55/55 68/124/68 67/125/67 
f 60/60/60 56/56/56 67/125/67 74/126/74 
f 64/64/64 60/60/60 74/126/74 78/127/78 
f 72/72/72 71/71/71 84/128/84 83/129/83 
f 76/76/76 72/72/72 83/129/83 90/130/90 
f 80/80/80 76/76/76 90/130/90 94/131/94 
# 90 polygons - 8 triangles

