# 3ds Max Wavefront OBJ Exporter v0.99 - (c)2007 guruware
# File Created: 29.11.2021 10:09:31

mtllib CuboPeluche.mtl

#
# object DadoPeluche
#

v  -22.0080 3.9370 -1.6372
v  -16.5210 3.9370 -1.6372
v  -16.5210 3.9370 3.8498
v  -22.0080 3.9370 3.8498
v  -16.5211 15.7480 3.8498
v  -16.5211 15.7480 -1.6372
v  -22.0081 15.7480 -1.6372
v  -22.0081 15.7480 3.8498
v  -16.5210 7.0990 7.0118
v  -16.5211 12.5860 7.0118
v  -22.0081 12.5860 7.0118
v  -22.0081 7.0990 7.0118
v  -13.3590 7.0990 -1.6372
v  -13.3591 12.5861 -1.6372
v  -13.3591 12.5861 3.8498
v  -13.3590 7.0990 3.8498
v  -22.0081 7.0990 -4.7992
v  -22.0081 12.5860 -4.7992
v  -16.5211 12.5860 -4.7992
v  -16.5210 7.0990 -4.7992
v  -25.1701 7.0990 3.8498
v  -25.1701 12.5860 3.8498
v  -25.1701 12.5860 -1.6372
v  -25.1701 7.0990 -1.6372
v  -22.0080 4.7275 6.2213
v  -23.9843 5.1227 5.8260
v  -24.3795 4.7275 3.8498
v  -24.3795 4.7275 -1.6372
v  -23.9843 5.1227 -3.6135
v  -22.0080 4.7275 -4.0087
v  -16.5210 4.7275 -4.0087
v  -14.5448 5.1228 -3.6135
v  -14.1495 4.7275 -1.6372
v  -14.1495 4.7275 3.8498
v  -14.5448 5.1228 5.8260
v  -16.5210 4.7275 6.2213
v  -24.3796 14.9575 3.8498
v  -23.9843 14.5623 5.8260
v  -22.0081 14.9575 6.2213
v  -16.5211 14.9575 6.2213
v  -14.5448 14.5623 5.8260
v  -14.1496 14.9576 3.8498
v  -14.1496 14.9576 -1.6372
v  -14.5448 14.5623 -3.6135
v  -16.5211 14.9575 -4.0087
v  -22.0081 14.9575 -4.0087
v  -23.9843 14.5623 -3.6135
v  -24.3796 14.9575 -1.6372
v  -24.3796 7.0990 6.2213
v  -14.1495 7.0990 6.2213
v  -14.1496 12.5861 6.2213
v  -24.3796 12.5860 6.2213
v  -14.1495 7.0990 -4.0087
v  -14.1496 12.5861 -4.0087
v  -24.3796 7.0990 -4.0087
v  -24.3796 12.5860 -4.0087
# 56 vertices

vn -0.1584 -0.9746 -0.1584
vn 0.1584 -0.9746 -0.1584
vn 0.1584 -0.9746 0.1584
vn -0.1584 -0.9746 0.1584
vn 0.1584 0.9746 0.1584
vn 0.1584 0.9746 -0.1584
vn -0.1584 0.9746 -0.1584
vn -0.1584 0.9746 0.1584
vn 0.1584 -0.1584 0.9746
vn 0.1584 0.1584 0.9746
vn -0.1584 0.1584 0.9746
vn -0.1584 -0.1584 0.9746
vn 0.9746 -0.1584 -0.1584
vn 0.9746 0.1584 -0.1584
vn 0.9746 0.1584 0.1584
vn 0.9746 -0.1584 0.1584
vn -0.1584 -0.1584 -0.9746
vn -0.1584 0.1584 -0.9746
vn 0.1584 0.1584 -0.9746
vn 0.1584 -0.1584 -0.9746
vn -0.9746 -0.1584 0.1584
vn -0.9746 0.1584 0.1584
vn -0.9746 0.1584 -0.1584
vn -0.9746 -0.1584 -0.1584
vn -0.1379 -0.7004 0.7004
vn -0.5774 -0.5774 0.5774
vn -0.7004 -0.7004 0.1379
vn -0.7004 -0.7004 -0.1379
vn -0.5774 -0.5774 -0.5774
vn -0.1379 -0.7004 -0.7004
vn 0.1379 -0.7004 -0.7004
vn 0.5774 -0.5774 -0.5774
vn 0.7004 -0.7004 -0.1379
vn 0.7004 -0.7004 0.1379
vn 0.5774 -0.5774 0.5774
vn 0.1379 -0.7004 0.7004
vn -0.7004 0.7004 0.1379
vn -0.5774 0.5774 0.5774
vn -0.1379 0.7004 0.7004
vn 0.1379 0.7004 0.7004
vn 0.5774 0.5774 0.5774
vn 0.7004 0.7004 0.1379
vn 0.7004 0.7004 -0.1379
vn 0.5774 0.5774 -0.5774
vn 0.1379 0.7004 -0.7004
vn -0.1379 0.7004 -0.7004
vn -0.5774 0.5774 -0.5774
vn -0.7004 0.7004 -0.1379
vn -0.7004 -0.1379 0.7004
vn 0.7004 -0.1379 0.7004
vn 0.7004 0.1379 0.7004
vn -0.7004 0.1379 0.7004
vn 0.7004 -0.1379 -0.7004
vn 0.7004 0.1379 -0.7004
vn -0.7004 -0.1379 -0.7004
vn -0.7004 0.1379 -0.7004
# 56 vertex normals

vt 0.7323 0.7323 0.0000
vt 0.2677 0.7323 0.0000
vt 0.2677 0.2677 0.0000
vt 0.7323 0.2677 0.0000
vt 0.7323 0.0000 0.0000
vt 1.0000 0.0000 0.0000
vt 1.0000 0.2677 0.0000
vt 1.0000 0.7323 0.0000
vt 1.0000 1.0000 0.0000
vt 0.7323 1.0000 0.0000
vt 0.2677 1.0000 0.0000
vt 0.0000 1.0000 0.0000
vt 0.0000 0.7323 0.0000
vt 0.0000 0.2677 0.0000
vt 0.0000 0.0000 0.0000
vt 0.2677 0.0000 0.0000
# 16 texture coords

o DadoPeluche
g DadoPeluche
usemtl wire_085028177
s off
f 1/1/1 2/2/2 3/3/3 4/4/4 
f 5/4/5 6/1/6 7/2/7 8/3/8 
f 9/4/9 10/1/10 11/2/11 12/3/12 
f 13/4/13 14/1/14 15/2/15 16/3/16 
f 17/4/17 18/1/18 19/2/19 20/3/20 
f 21/4/21 22/1/22 23/2/23 24/3/24 
f 4/4/4 25/5/25 26/6/26 27/7/27 
f 1/1/1 28/8/28 29/9/29 30/10/30 
f 2/2/2 31/11/31 32/12/32 33/13/33 
f 3/3/3 34/14/34 35/15/35 36/16/36 
f 8/3/8 37/14/37 38/15/38 39/16/39 
f 5/4/5 40/5/40 41/6/41 42/7/42 
f 6/1/6 43/8/43 44/9/44 45/10/45 
f 7/2/7 46/11/46 47/12/47 48/13/48 
f 12/3/12 49/14/49 26/15/26 25/16/25 
f 9/4/9 36/5/36 35/6/35 50/7/50 
f 10/1/10 51/8/51 41/9/41 40/10/40 
f 11/2/11 39/11/39 38/12/38 52/13/52 
f 16/3/16 50/14/50 35/15/35 34/16/34 
f 13/4/13 33/5/33 32/6/32 53/7/53 
f 14/1/14 54/8/54 44/9/44 43/10/43 
f 15/2/15 42/11/42 41/12/41 51/13/51 
f 20/3/20 53/14/53 32/15/32 31/16/31 
f 17/4/17 30/5/30 29/6/29 55/7/55 
f 18/1/18 56/8/56 47/9/47 46/10/46 
f 19/2/19 45/11/45 44/12/44 54/13/54 
f 24/3/24 55/14/55 29/15/29 28/16/28 
f 21/4/21 27/5/27 26/6/26 49/7/49 
f 22/1/22 52/8/52 38/9/38 37/10/37 
f 23/2/23 48/11/48 47/12/47 56/13/56 
f 1/1/1 4/4/4 27/7/27 28/8/28 
f 2/2/2 1/1/1 30/10/30 31/11/31 
f 3/3/3 2/2/2 33/13/33 34/14/34 
f 4/4/4 3/3/3 36/16/36 25/5/25 
f 5/4/5 8/3/8 39/16/39 40/5/40 
f 6/1/6 5/4/5 42/7/42 43/8/43 
f 7/2/7 6/1/6 45/10/45 46/11/46 
f 8/3/8 7/2/7 48/13/48 37/14/37 
f 9/4/9 12/3/12 25/16/25 36/5/36 
f 10/1/10 9/4/9 50/7/50 51/8/51 
f 11/2/11 10/1/10 40/10/40 39/11/39 
f 12/3/12 11/2/11 52/13/52 49/14/49 
f 13/4/13 16/3/16 34/16/34 33/5/33 
f 14/1/14 13/4/13 53/7/53 54/8/54 
f 15/2/15 14/1/14 43/10/43 42/11/42 
f 16/3/16 15/2/15 51/13/51 50/14/50 
f 17/4/17 20/3/20 31/16/31 30/5/30 
f 18/1/18 17/4/17 55/7/55 56/8/56 
f 19/2/19 18/1/18 46/10/46 45/11/45 
f 20/3/20 19/2/19 54/13/54 53/14/53 
f 21/4/21 24/3/24 28/16/28 27/5/27 
f 22/1/22 21/4/21 49/7/49 52/8/52 
f 23/2/23 22/1/22 37/10/37 48/11/48 
f 24/3/24 23/2/23 56/13/56 55/14/55 
# 54 polygons

