# 3ds Max Wavefront OBJ Exporter v0.99 - (c)2007 guruware
# File Created: 24.11.2021 08:28:30

mtllib Escalera.mtl

#
# object EscaleraOOOH
#

v  -1.0069 -53.9461 -2.2998
v  -7.6227 -4.9170 -2.2998
v  33.1364 -4.9170 -2.2998
v  37.0867 -53.9461 -2.2998
v  75.6054 -4.9170 -2.2998
v  79.5556 -53.9461 -2.2998
v  118.0744 -4.9170 -2.2998
v  122.0246 -53.9461 -2.2998
v  160.5433 -4.9170 -2.2998
v  164.4936 -53.9461 -2.2998
v  211.7737 -4.9170 -2.2998
v  211.7737 -53.9461 -2.2998
v  -3.8614 -60.4928 28.3680
v  39.3920 -60.4928 28.3680
v  36.1714 -4.8227 28.3680
v  -10.1085 -4.8227 28.3680
v  33.8456 -60.4928 48.1279
v  82.0670 -60.4928 48.1279
v  78.8465 -4.8227 48.1279
v  30.6250 -4.8227 48.1279
v  76.3146 -60.4928 67.0276
v  124.5360 -60.4928 67.0276
v  121.3154 -4.8227 67.0276
v  73.0940 -4.8227 67.0276
v  118.7836 -60.4928 89.7089
v  167.0050 -60.4928 89.7089
v  163.7844 -4.8227 89.7089
v  115.5630 -4.8227 89.7089
v  160.9107 -60.4928 120.3842
v  214.9917 -60.4928 120.3842
v  214.9917 -4.8227 120.3842
v  157.6902 -4.8227 120.3842
v  37.0867 -53.9461 18.9347
v  -1.0069 -53.9461 18.9347
v  79.5556 -53.9461 38.6946
v  122.0246 -53.9461 57.5943
v  164.4936 -53.9461 80.2756
v  211.7737 -53.9461 110.9509
v  211.7737 -4.9170 110.9509
v  211.7737 41.3277 -2.2998
v  164.4936 41.3277 -2.2998
v  164.4936 41.3277 80.2756
v  211.7737 41.3277 110.9509
v  122.0246 41.3277 -2.2998
v  122.0246 41.3277 57.5943
v  79.5556 41.3277 -2.2998
v  79.5556 41.3277 38.6946
v  37.0867 41.3277 -2.2998
v  37.0867 41.3277 18.9347
v  -1.0069 41.3277 -2.2998
v  -1.0069 41.3277 18.9347
v  -7.6227 -4.9170 18.9347
v  39.3920 47.6859 28.3680
v  -3.8614 47.6859 28.3680
v  82.0670 47.6859 48.1279
v  33.8456 47.6859 48.1279
v  124.5360 47.6859 67.0276
v  76.3146 47.6859 67.0276
v  167.0050 47.6859 89.7089
v  118.7836 47.6859 89.7089
v  214.9917 47.6859 120.3842
v  160.9107 47.6859 120.3842
v  33.1364 -4.9170 18.9347
v  37.0867 -53.9461 38.6946
v  33.1364 -4.9170 38.6946
v  75.6054 -4.9170 18.9347
v  75.6054 -4.9170 38.6946
v  37.0867 41.3277 38.6946
v  79.5556 -53.9461 57.5943
v  75.6054 -4.9170 57.5943
v  118.0744 -4.9170 18.9347
v  118.0744 -4.9170 57.5943
v  79.5556 41.3277 57.5943
v  122.0246 -53.9461 80.2756
v  118.0744 -4.9170 80.2756
v  160.5433 -4.9170 18.9347
v  160.5433 -4.9170 80.2756
v  122.0246 41.3277 80.2756
v  164.4936 -53.9461 110.9509
v  160.5433 -4.9170 110.9509
v  164.4936 41.3277 110.9509
# 81 vertices

vn -0.5339 -0.6108 -0.5847
vn -0.7356 0.0029 -0.6774
vn 0.0000 0.0000 -1.0000
vn 0.0000 -0.7071 -0.7071
vn 0.7071 0.0000 -0.7071
vn 0.5774 -0.5774 -0.5774
vn -0.5826 -0.7350 0.3470
vn 0.6182 -0.7028 0.3521
vn 0.7970 -0.0017 0.6040
vn -0.8119 0.0032 0.5838
vn -0.6054 -0.7196 0.3400
vn 0.6224 -0.7006 0.3489
vn 0.8030 -0.0017 0.5960
vn -0.8035 0.0017 0.5953
vn -0.6119 -0.7165 0.3349
vn 0.6210 -0.7067 0.3391
vn 0.8133 0.0000 0.5819
vn -0.8133 0.0017 0.5819
vn 0.0905 -0.9704 -0.2238
vn -0.6620 -0.6674 -0.3412
vn 0.0886 -0.9688 -0.2315
vn 0.7132 -0.6101 -0.3452
vn 0.9865 0.0000 -0.1636
vn 0.5774 0.5774 -0.5774
vn 0.0000 0.7071 -0.7071
vn 0.0867 0.9700 -0.2273
vn 0.7117 0.6141 -0.3410
vn 0.0886 0.9716 -0.2196
vn -0.5312 0.6127 -0.5852
vn -0.6572 0.6743 -0.3367
vn -0.9915 0.0036 -0.1300
vn 0.6202 0.6990 0.3561
vn -0.5817 0.7337 0.3511
vn 0.6244 0.6969 0.3528
vn -0.6056 0.7176 0.3439
vn 0.6221 0.7039 0.3428
vn -0.6121 0.7146 0.3387
vn -0.2049 0.0021 -0.9788
vn -0.6770 -0.6462 -0.3523
vn -0.9914 0.0021 -0.1306
vn -1.0000 0.0000 0.0000
vn 0.9866 -0.0021 -0.1633
vn -0.6736 0.6521 -0.3478
vn -0.6736 0.6521 -0.3479
vn 1.0000 0.0000 0.0000
vn -0.6686 -0.6479 -0.3650
vn -0.9891 0.0021 -0.1475
vn -0.6653 0.6538 -0.3605
# 48 vertex normals

vt 0.2296 0.5142 0.0000
vt 0.2802 0.5142 0.0000
vt 0.2802 0.5560 0.0000
vt 0.2291 0.5560 0.0000
vt 0.2802 0.6012 0.0000
vt 0.2293 0.6012 0.0000
vt 0.2802 0.6463 0.0000
vt 0.2294 0.6463 0.0000
vt 0.2802 0.6914 0.0000
vt 0.2295 0.6914 0.0000
vt 0.2802 0.7437 0.0000
vt 0.2295 0.7437 0.0000
vt 0.2227 0.4810 0.0000
vt 0.2202 0.4333 0.0000
vt 0.2802 0.4333 0.0000
vt 0.2802 0.4810 0.0000
vt 0.2190 0.3878 0.0000
vt 0.2195 0.3324 0.0000
vt 0.2802 0.3324 0.0000
vt 0.2802 0.3878 0.0000
vt 0.2174 0.2711 0.0000
vt 0.2181 0.2315 0.0000
vt 0.2802 0.2315 0.0000
vt 0.2802 0.2711 0.0000
vt 0.2159 0.1384 0.0000
vt 0.2136 0.0819 0.0000
vt 0.2802 0.0819 0.0000
vt 0.2802 0.1384 0.0000
vt 0.2383 0.9191 0.0000
vt 0.2319 0.8767 0.0000
vt 0.2802 0.8751 0.0000
vt 0.2802 0.9207 0.0000
vt 0.0040 0.7400 0.0000
vt 0.0445 0.7406 0.0000
vt 0.0442 0.7631 0.0000
vt 0.0037 0.7626 0.0000
vt 0.0896 0.7412 0.0000
vt 0.0890 0.7847 0.0000
vt 0.1347 0.7418 0.0000
vt 0.1338 0.8054 0.0000
vt 0.1798 0.7426 0.0000
vt 0.1787 0.8296 0.0000
vt 0.2281 0.8646 0.0000
vt 0.2802 0.8637 0.0000
vt 0.3307 0.7436 0.0000
vt 0.3805 0.7425 0.0000
vt 0.3818 0.8298 0.0000
vt 0.3324 0.8645 0.0000
vt 0.4256 0.7416 0.0000
vt 0.4266 0.8052 0.0000
vt 0.4707 0.7409 0.0000
vt 0.4714 0.7844 0.0000
vt 0.5158 0.7402 0.0000
vt 0.5162 0.7627 0.0000
vt 0.5563 0.7395 0.0000
vt 0.5566 0.7621 0.0000
vt 0.3304 0.5142 0.0000
vt 0.2802 0.4916 0.0000
vt 0.3303 0.4916 0.0000
vt 0.3310 0.5560 0.0000
vt 0.3308 0.6012 0.0000
vt 0.3307 0.6463 0.0000
vt 0.3307 0.6914 0.0000
vt 0.3414 0.4333 0.0000
vt 0.3370 0.4810 0.0000
vt 0.3428 0.3324 0.0000
vt 0.3441 0.3878 0.0000
vt 0.3413 0.2315 0.0000
vt 0.3438 0.2711 0.0000
vt 0.3403 0.0819 0.0000
vt 0.3408 0.1384 0.0000
vt 0.3285 0.8766 0.0000
vt 0.3222 0.9190 0.0000
vt 0.2287 0.4916 0.0000
vt 0.2802 0.4222 0.0000
vt 0.2268 0.4222 0.0000
vt 0.2266 0.3995 0.0000
vt 0.2802 0.3995 0.0000
vt 0.0439 0.7841 0.0000
vt 0.2274 0.3149 0.0000
vt 0.2802 0.2935 0.0000
vt 0.2802 0.3149 0.0000
vt 0.3342 0.3159 0.0000
vt 0.5165 0.7837 0.0000
vt 0.3370 0.4222 0.0000
vt 0.3368 0.3995 0.0000
vt 0.2244 0.2831 0.0000
vt 0.2802 0.2831 0.0000
vt 0.0887 0.8048 0.0000
vt 0.2252 0.1944 0.0000
vt 0.2802 0.1944 0.0000
vt 0.2802 0.2199 0.0000
vt 0.3337 0.1944 0.0000
vt 0.4717 0.8045 0.0000
vt 0.3374 0.2831 0.0000
vt 0.2204 0.1493 0.0000
vt 0.2802 0.1493 0.0000
vt 0.1336 0.8291 0.0000
vt 0.2217 0.0710 0.0000
vt 0.2802 0.0005 0.0000
vt 0.2802 0.0710 0.0000
vt 0.3318 0.0710 0.0000
vt 0.4269 0.8293 0.0000
vt 0.3372 0.1493 0.0000
vt 0.2802 0.9995 0.0000
vt 0.2431 0.9516 0.0000
vt 0.2431 0.9275 0.0000
vt 0.2802 0.9279 0.0000
vt 0.1766 0.8611 0.0000
vt 0.3839 0.8610 0.0000
vt 0.3176 0.9515 0.0000
vt 0.3176 0.9275 0.0000
vt 0.0373 0.7754 0.0000
vt 0.0005 0.7747 0.0000
vt 0.5598 0.7741 0.0000
vt 0.5197 0.7758 0.0000
vt 0.0838 0.7970 0.0000
vt 0.0403 0.7963 0.0000
vt 0.5201 0.7957 0.0000
vt 0.4756 0.7956 0.0000
vt 0.1282 0.8177 0.0000
vt 0.0851 0.8170 0.0000
vt 0.4753 0.8165 0.0000
vt 0.4299 0.8173 0.0000
vt 0.1721 0.8423 0.0000
vt 0.1300 0.8413 0.0000
vt 0.4305 0.8413 0.0000
vt 0.3855 0.8424 0.0000
vt 0.1712 0.8723 0.0000
vt 0.3893 0.8721 0.0000
# 130 texture coords

o EscaleraOOOH
g EscaleraOOOH
usemtl Material__14
s 2
f 1/1/1 2/2/2 3/3/3 4/4/4 
f 4/4/4 3/3/3 5/5/3 6/6/4 
f 6/6/4 5/5/3 7/7/3 8/8/4 
f 8/8/4 7/7/3 9/9/3 10/10/4 
f 10/10/4 9/9/3 11/11/5 12/12/6 
s 4
f 13/13/7 14/14/8 15/15/9 16/16/10 
f 17/17/11 18/18/12 19/19/13 20/20/14 
f 21/21/11 22/22/12 23/23/13 24/24/14 
f 25/25/11 26/26/12 27/27/13 28/28/14 
f 29/29/15 30/30/16 31/31/17 32/32/18 
s 8
f 1/33/1 4/34/4 33/35/19 34/36/20 
f 4/34/4 6/37/4 35/38/21 33/35/19 
f 6/37/4 8/39/4 36/40/21 35/38/21 
f 8/39/4 10/41/4 37/42/21 36/40/21 
f 10/41/4 12/12/6 38/43/22 37/42/21 
s 16
f 12/12/6 11/11/5 39/44/23 38/43/22 
s 32
f 40/45/24 41/46/25 42/47/26 43/48/27 
f 41/46/25 44/49/25 45/50/26 42/47/26 
f 44/49/25 46/51/25 47/52/26 45/50/26 
f 46/51/25 48/53/25 49/54/28 47/52/26 
f 48/53/25 50/55/29 51/56/30 49/54/28 
s 64
f 50/57/29 2/2/2 52/58/31 51/59/30 
s 2
f 2/2/2 50/57/29 48/60/25 3/3/3 
f 3/3/3 48/60/25 46/61/25 5/5/3 
f 5/5/3 46/61/25 44/62/25 7/7/3 
f 7/7/3 44/62/25 41/63/25 9/9/3 
f 9/9/3 41/63/25 40/45/24 11/11/5 
s 4
f 15/15/9 53/64/32 54/65/33 16/16/10 
f 19/19/13 55/66/34 56/67/35 20/20/14 
f 23/23/13 57/68/34 58/69/35 24/24/14 
f 27/27/13 59/70/34 60/71/35 28/28/14 
f 31/31/17 61/72/36 62/73/37 32/32/18 
s 16
f 11/11/5 40/45/24 43/48/27 39/44/23 
s 64
f 2/2/2 1/1/1 34/74/20 52/58/31 
s off
f 63/75/38 33/76/19 64/77/39 65/78/40 
f 33/35/19 35/38/21 64/79/39 
f 35/80/21 66/81/41 67/82/42 
f 66/81/41 47/83/26 67/82/42 
f 47/52/26 49/54/28 68/84/43 
f 49/85/28 63/75/38 65/78/40 68/86/43 
f 66/81/41 35/80/21 69/87/39 70/88/40 
f 35/38/21 36/40/21 69/89/39 
f 36/90/21 71/91/41 72/92/42 
f 71/91/41 45/93/26 72/92/42 
f 45/50/26 47/52/26 73/94/44 
f 47/83/26 66/81/41 70/88/40 73/95/44 
f 71/91/41 36/90/21 74/96/39 75/97/40 
f 36/40/21 37/42/21 74/98/39 
f 37/99/21 76/100/45 77/101/42 
f 76/100/45 42/102/26 77/101/42 
f 42/47/26 45/50/26 78/103/44 
f 45/93/26 71/91/41 75/97/40 78/104/44 
f 76/105/45 37/106/21 79/107/46 80/108/47 
f 37/42/21 38/43/22 79/109/46 
f 43/48/27 42/47/26 81/110/48 
f 42/111/26 76/105/45 80/108/47 81/112/48 
f 34/36/20 33/35/19 14/113/8 13/114/7 
f 33/76/19 63/75/38 15/15/9 14/14/8 
f 63/75/38 49/85/28 53/64/32 15/15/9 
f 49/54/28 51/56/30 54/115/33 53/116/32 
f 51/59/30 52/58/31 16/16/10 54/65/33 
f 52/58/31 34/74/20 13/13/7 16/16/10 
f 65/78/40 64/77/39 17/17/11 20/20/14 
f 64/79/39 35/38/21 18/117/12 17/118/11 
f 35/80/21 67/82/42 19/19/13 18/18/12 
f 67/82/42 47/83/26 55/66/34 19/19/13 
f 47/52/26 68/84/43 56/119/35 55/120/34 
f 68/86/43 65/78/40 20/20/14 56/67/35 
f 70/88/40 69/87/39 21/21/11 24/24/14 
f 69/89/39 36/40/21 22/121/12 21/122/11 
f 36/90/21 72/92/42 23/23/13 22/22/12 
f 72/92/42 45/93/26 57/68/34 23/23/13 
f 45/50/26 73/94/44 58/123/35 57/124/34 
f 73/95/44 70/88/40 24/24/14 58/69/35 
f 75/97/40 74/96/39 25/25/11 28/28/14 
f 74/98/39 37/42/21 26/125/12 25/126/11 
f 37/99/21 77/101/42 27/27/13 26/26/12 
f 77/101/42 42/102/26 59/70/34 27/27/13 
f 42/47/26 78/103/44 60/127/35 59/128/34 
f 78/104/44 75/97/40 28/28/14 60/71/35 
f 80/108/47 79/107/46 29/29/15 32/32/18 
f 79/109/46 38/43/22 30/30/16 29/129/15 
f 38/43/22 39/44/23 31/31/17 30/30/16 
f 39/44/23 43/48/27 61/72/36 31/31/17 
f 43/48/27 81/110/48 62/130/37 61/72/36 
f 81/112/48 80/108/47 32/32/18 62/73/37 
# 72 polygons - 14 triangles

