# 3ds Max Wavefront OBJ Exporter v0.99 - (c)2007 guruware
# File Created: 17.11.2021 09:13:55

mtllib Lego.mtl

#
# object LegoCorto
#

v  13.5284 -5.8952 6.0150
v  13.5284 -5.8952 -6.0150
v  13.5284 0.7113 -6.0150
v  13.5284 0.7113 6.0150
v  0.0000 -5.8952 -6.0150
v  0.0000 0.7113 -6.0150
v  5.6880 0.6271 2.8146
v  5.3628 0.6271 1.6009
v  5.3628 2.5886 1.6009
v  5.6880 2.5886 2.8146
v  4.4743 0.6271 0.7124
v  4.4743 2.5886 0.7124
v  3.2606 0.6271 0.3872
v  3.2606 2.5886 0.3872
v  2.0468 0.6271 0.7124
v  2.0468 2.5886 0.7124
v  1.1583 0.6271 1.6009
v  1.1583 2.5886 1.6009
v  0.8331 0.6271 2.8146
v  0.8331 2.5886 2.8146
v  1.1583 0.6271 4.0283
v  1.1583 2.5886 4.0283
v  2.0468 0.6271 4.9168
v  2.0468 2.5886 4.9168
v  3.2606 0.6271 5.2420
v  3.2606 2.5886 5.2420
v  4.4743 0.6271 4.9168
v  4.4743 2.5886 4.9168
v  5.3628 0.6271 4.0283
v  5.3628 2.5886 4.0283
v  3.2606 5.8952 2.8146
v  5.6880 0.6271 -2.8916
v  5.3628 0.6271 -4.1053
v  5.3628 2.5886 -4.1053
v  5.6880 2.5886 -2.8916
v  4.4743 0.6271 -4.9938
v  4.4743 2.5886 -4.9938
v  3.2606 0.6271 -5.3190
v  3.2606 2.5886 -5.3190
v  2.0468 0.6271 -4.9938
v  2.0468 2.5886 -4.9938
v  1.1583 0.6271 -4.1053
v  1.1583 2.5886 -4.1053
v  0.8331 0.6271 -2.8916
v  0.8331 2.5886 -2.8916
v  1.1583 0.6271 -1.6779
v  1.1583 2.5886 -1.6779
v  2.0468 0.6271 -0.7894
v  2.0468 2.5886 -0.7894
v  3.2606 0.6271 -0.4642
v  3.2606 2.5886 -0.4642
v  4.4743 0.6271 -0.7894
v  4.4743 2.5886 -0.7894
v  5.3628 0.6271 -1.6779
v  5.3628 2.5886 -1.6779
v  3.2606 5.8952 -2.8916
v  12.3018 0.6271 2.8146
v  11.9765 0.6271 1.6009
v  11.9765 2.5886 1.6009
v  12.3018 2.5886 2.8146
v  11.0880 0.6271 0.7124
v  11.0880 2.5886 0.7124
v  9.8743 0.6271 0.3872
v  9.8743 2.5886 0.3872
v  8.6606 0.6271 0.7124
v  8.6606 2.5886 0.7124
v  7.7721 0.6271 1.6009
v  7.7721 2.5886 1.6009
v  7.4469 0.6271 2.8146
v  7.4469 2.5886 2.8146
v  7.7721 0.6271 4.0283
v  7.7721 2.5886 4.0283
v  8.6606 0.6271 4.9168
v  8.6606 2.5886 4.9168
v  9.8743 0.6271 5.2420
v  9.8743 2.5886 5.2420
v  11.0880 0.6271 4.9168
v  11.0880 2.5886 4.9168
v  11.9765 0.6271 4.0283
v  11.9765 2.5886 4.0283
v  9.8743 5.8952 2.8146
v  12.3018 0.6271 -2.8916
v  11.9765 0.6271 -4.1053
v  11.9765 2.5886 -4.1053
v  12.3018 2.5886 -2.8916
v  11.0880 0.6271 -4.9938
v  11.0880 2.5886 -4.9938
v  9.8743 0.6271 -5.3190
v  9.8743 2.5886 -5.3190
v  8.6606 0.6271 -4.9938
v  8.6606 2.5886 -4.9938
v  7.7721 0.6271 -4.1053
v  7.7721 2.5886 -4.1053
v  7.4469 0.6271 -2.8916
v  7.4469 2.5886 -2.8916
v  7.7721 0.6271 -1.6779
v  7.7721 2.5886 -1.6779
v  8.6606 0.6271 -0.7894
v  8.6606 2.5886 -0.7894
v  9.8743 0.6271 -0.4642
v  9.8743 2.5886 -0.4642
v  11.0880 0.6271 -0.7894
v  11.0880 2.5886 -0.7894
v  11.9765 0.6271 -1.6779
v  11.9765 2.5886 -1.6779
v  9.8743 5.8952 -2.8916
v  0.0000 -5.8952 6.0150
v  0.0000 0.7113 6.0150
# 108 vertices

vn 1.0000 0.0000 -0.0000
vn -0.0000 -0.0000 -1.0000
vn 1.0000 0.0000 0.0000
vn 0.8660 0.0000 -0.5000
vn 0.8339 0.2698 -0.4815
vn 0.9629 0.2698 0.0000
vn 0.5000 0.0000 -0.8660
vn 0.4815 0.2698 -0.8339
vn 0.0000 0.0000 -1.0000
vn 0.0000 0.2698 -0.9629
vn -0.5000 0.0000 -0.8660
vn -0.4815 0.2698 -0.8339
vn -0.8660 0.0000 -0.5000
vn -0.8339 0.2698 -0.4815
vn -1.0000 0.0000 -0.0000
vn -0.9629 0.2698 -0.0000
vn -0.8660 0.0000 0.5000
vn -0.8339 0.2698 0.4815
vn -0.5000 0.0000 0.8660
vn -0.4815 0.2698 0.8339
vn -0.0000 0.0000 1.0000
vn -0.0000 0.2698 0.9629
vn 0.5000 0.0000 0.8660
vn 0.4815 0.2698 0.8339
vn 0.8660 0.0000 0.5000
vn 0.8339 0.2698 0.4815
vn -0.0000 1.0000 0.0000
vn 0.0000 -1.0000 -0.0000
vn 0.0000 1.0000 -0.0000
vn -0.0000 -0.0000 1.0000
# 30 vertex normals

vt 0.1661 0.1633 0.0000
vt 0.1633 0.4597 0.0000
vt 0.0005 0.4597 0.0000
vt 0.0005 0.1633 0.0000
vt 0.4966 0.4596 0.0000
vt 0.4966 0.6224 0.0000
vt 0.1633 0.6224 0.0000
vt 0.1910 0.7006 0.0000
vt 0.2326 0.7006 0.0000
vt 0.2326 0.7649 0.0000
vt 0.1910 0.7649 0.0000
vt 0.2742 0.7006 0.0000
vt 0.2743 0.7649 0.0000
vt 0.3159 0.7006 0.0000
vt 0.3158 0.7649 0.0000
vt 0.3575 0.7006 0.0000
vt 0.3575 0.7649 0.0000
vt 0.3992 0.7006 0.0000
vt 0.3992 0.7649 0.0000
vt 0.4408 0.7006 0.0000
vt 0.4408 0.7649 0.0000
vt 0.4824 0.7006 0.0000
vt 0.4824 0.7649 0.0000
vt 0.5241 0.7006 0.0000
vt 0.5241 0.7649 0.0000
vt 0.5657 0.7006 0.0000
vt 0.5657 0.7649 0.0000
vt 0.6073 0.7006 0.0000
vt 0.6073 0.7649 0.0000
vt 0.6490 0.7006 0.0000
vt 0.6490 0.7649 0.0000
vt 0.6906 0.7006 0.0000
vt 0.6906 0.7649 0.0000
vt 0.2178 0.8214 0.0000
vt 0.2385 0.7856 0.0000
vt 0.2951 0.8421 0.0000
vt 0.3516 0.7856 0.0000
vt 0.3723 0.8214 0.0000
vt 0.3723 0.8628 0.0000
vt 0.3516 0.8987 0.0000
vt 0.3158 0.9194 0.0000
vt 0.2744 0.9194 0.0000
vt 0.2385 0.8987 0.0000
vt 0.2178 0.8628 0.0000
vt 0.4999 0.4793 0.0000
vt 0.5415 0.4793 0.0000
vt 0.5415 0.5435 0.0000
vt 0.4999 0.5435 0.0000
vt 0.5831 0.4793 0.0000
vt 0.5832 0.5435 0.0000
vt 0.6248 0.4793 0.0000
vt 0.6247 0.5435 0.0000
vt 0.6664 0.4793 0.0000
vt 0.6664 0.5435 0.0000
vt 0.7080 0.4793 0.0000
vt 0.7080 0.5435 0.0000
vt 0.7497 0.4793 0.0000
vt 0.7497 0.5435 0.0000
vt 0.7913 0.4793 0.0000
vt 0.7913 0.5435 0.0000
vt 0.8330 0.4793 0.0000
vt 0.8330 0.5435 0.0000
vt 0.8746 0.4793 0.0000
vt 0.8746 0.5435 0.0000
vt 0.9162 0.4793 0.0000
vt 0.9162 0.5435 0.0000
vt 0.9579 0.4793 0.0000
vt 0.9579 0.5435 0.0000
vt 0.9995 0.4793 0.0000
vt 0.9995 0.5435 0.0000
vt 0.5267 0.6001 0.0000
vt 0.5474 0.5642 0.0000
vt 0.6039 0.6208 0.0000
vt 0.6605 0.5642 0.0000
vt 0.6812 0.6001 0.0000
vt 0.6812 0.6415 0.0000
vt 0.6605 0.6773 0.0000
vt 0.6246 0.6980 0.0000
vt 0.5832 0.6980 0.0000
vt 0.5474 0.6773 0.0000
vt 0.5267 0.6415 0.0000
vt 0.8395 0.7676 0.0000
vt 0.8811 0.7676 0.0000
vt 0.8811 0.8318 0.0000
vt 0.8395 0.8318 0.0000
vt 0.3815 0.7676 0.0000
vt 0.4231 0.7676 0.0000
vt 0.4231 0.8318 0.0000
vt 0.3815 0.8318 0.0000
vt 0.4647 0.7676 0.0000
vt 0.4648 0.8318 0.0000
vt 0.5064 0.7676 0.0000
vt 0.5063 0.8318 0.0000
vt 0.5480 0.7676 0.0000
vt 0.5480 0.8318 0.0000
vt 0.5896 0.7676 0.0000
vt 0.5896 0.8318 0.0000
vt 0.6313 0.7676 0.0000
vt 0.6313 0.8318 0.0000
vt 0.6729 0.7676 0.0000
vt 0.6729 0.8318 0.0000
vt 0.7145 0.7676 0.0000
vt 0.7145 0.8318 0.0000
vt 0.7562 0.7676 0.0000
vt 0.7562 0.8318 0.0000
vt 0.7978 0.7676 0.0000
vt 0.7978 0.8318 0.0000
vt 0.4083 0.9298 0.0000
vt 0.4083 0.8884 0.0000
vt 0.4855 0.9091 0.0000
vt 0.4290 0.8525 0.0000
vt 0.5421 0.8525 0.0000
vt 0.5628 0.8884 0.0000
vt 0.5628 0.9298 0.0000
vt 0.5421 0.9656 0.0000
vt 0.5062 0.9863 0.0000
vt 0.4648 0.9863 0.0000
vt 0.4290 0.9656 0.0000
vt 0.4585 0.6286 0.0000
vt 0.5001 0.6286 0.0000
vt 0.5001 0.6928 0.0000
vt 0.4585 0.6928 0.0000
vt 0.0005 0.6286 0.0000
vt 0.0421 0.6286 0.0000
vt 0.0421 0.6928 0.0000
vt 0.0005 0.6928 0.0000
vt 0.0838 0.6286 0.0000
vt 0.0838 0.6928 0.0000
vt 0.1254 0.6286 0.0000
vt 0.1254 0.6928 0.0000
vt 0.1670 0.6286 0.0000
vt 0.1670 0.6928 0.0000
vt 0.2087 0.6286 0.0000
vt 0.2087 0.6928 0.0000
vt 0.2503 0.6286 0.0000
vt 0.2503 0.6928 0.0000
vt 0.2920 0.6286 0.0000
vt 0.2920 0.6928 0.0000
vt 0.3336 0.6286 0.0000
vt 0.3336 0.6928 0.0000
vt 0.3752 0.6286 0.0000
vt 0.3752 0.6928 0.0000
vt 0.4169 0.6286 0.0000
vt 0.4169 0.6928 0.0000
vt 0.0273 0.7908 0.0000
vt 0.0273 0.7494 0.0000
vt 0.1046 0.7701 0.0000
vt 0.0480 0.7135 0.0000
vt 0.1611 0.7135 0.0000
vt 0.1818 0.7494 0.0000
vt 0.1818 0.7908 0.0000
vt 0.1611 0.8266 0.0000
vt 0.1253 0.8473 0.0000
vt 0.0839 0.8473 0.0000
vt 0.0480 0.8266 0.0000
vt 0.5023 0.1633 0.0000
vt 0.9983 0.1728 0.0000
vt 0.9926 0.4692 0.0000
vt 0.6593 0.4628 0.0000
vt 0.6650 0.1664 0.0000
vt 0.1690 0.0005 0.0000
vt 0.5023 0.0005 0.0000
# 162 texture coords

o LegoCorto
g LegoCorto
usemtl wire_153228214
s off
f 1/1/1 2/2/1 3/3/1 4/4/1 
f 5/5/2 6/6/2 3/7/2 2/2/2 
f 7/8/3 8/9/4 9/10/5 10/11/6 
f 8/9/4 11/12/7 12/13/8 9/10/5 
f 11/12/7 13/14/9 14/15/10 12/13/8 
f 13/14/9 15/16/11 16/17/12 14/15/10 
f 15/16/11 17/18/13 18/19/14 16/17/12 
f 17/18/13 19/20/15 20/21/16 18/19/14 
f 19/20/15 21/22/17 22/23/18 20/21/16 
f 21/22/17 23/24/19 24/25/20 22/23/18 
f 23/24/19 25/26/21 26/27/22 24/25/20 
f 25/26/21 27/28/23 28/29/24 26/27/22 
f 27/28/23 29/30/25 30/31/26 28/29/24 
f 29/30/25 7/32/3 10/33/6 30/31/26 
f 10/34/6 9/35/5 31/36/27 
f 9/35/5 12/13/8 31/36/27 
f 12/13/8 14/15/10 31/36/27 
f 14/15/10 16/37/12 31/36/27 
f 16/37/12 18/38/14 31/36/27 
f 18/38/14 20/39/16 31/36/27 
f 20/39/16 22/40/18 31/36/27 
f 22/40/18 24/41/20 31/36/27 
f 24/41/20 26/42/22 31/36/27 
f 26/42/22 28/43/24 31/36/27 
f 28/43/24 30/44/26 31/36/27 
f 30/44/26 10/34/6 31/36/27 
f 32/45/3 33/46/4 34/47/5 35/48/6 
f 33/46/4 36/49/7 37/50/8 34/47/5 
f 36/49/7 38/51/9 39/52/10 37/50/8 
f 38/51/9 40/53/11 41/54/12 39/52/10 
f 40/53/11 42/55/13 43/56/14 41/54/12 
f 42/55/13 44/57/15 45/58/16 43/56/14 
f 44/57/15 46/59/17 47/60/18 45/58/16 
f 46/59/17 48/61/19 49/62/20 47/60/18 
f 48/61/19 50/63/21 51/64/22 49/62/20 
f 50/63/21 52/65/23 53/66/24 51/64/22 
f 52/65/23 54/67/25 55/68/26 53/66/24 
f 54/67/25 32/69/3 35/70/6 55/68/26 
f 35/71/6 34/72/5 56/73/27 
f 34/72/5 37/50/8 56/73/27 
f 37/50/8 39/52/10 56/73/27 
f 39/52/10 41/74/12 56/73/27 
f 41/74/12 43/75/14 56/73/27 
f 43/75/14 45/76/16 56/73/27 
f 45/76/16 47/77/18 56/73/27 
f 47/77/18 49/78/20 56/73/27 
f 49/78/20 51/79/22 56/73/27 
f 51/79/22 53/80/24 56/73/27 
f 53/80/24 55/81/26 56/73/27 
f 55/81/26 35/71/6 56/73/27 
f 57/82/3 58/83/4 59/84/5 60/85/6 
f 58/86/4 61/87/7 62/88/8 59/89/5 
f 61/87/7 63/90/9 64/91/10 62/88/8 
f 63/90/9 65/92/11 66/93/12 64/91/10 
f 65/92/11 67/94/13 68/95/14 66/93/12 
f 67/94/13 69/96/15 70/97/16 68/95/14 
f 69/96/15 71/98/17 72/99/18 70/97/16 
f 71/98/17 73/100/19 74/101/20 72/99/18 
f 73/100/19 75/102/21 76/103/22 74/101/20 
f 75/102/21 77/104/23 78/105/24 76/103/22 
f 77/104/23 79/106/25 80/107/26 78/105/24 
f 79/106/25 57/82/3 60/85/6 80/107/26 
f 60/108/6 59/109/5 81/110/27 
f 59/109/5 62/111/8 81/110/27 
f 62/111/8 64/91/10 81/110/27 
f 64/91/10 66/93/12 81/110/27 
f 66/93/12 68/112/14 81/110/27 
f 68/112/14 70/113/16 81/110/27 
f 70/113/16 72/114/18 81/110/27 
f 72/114/18 74/115/20 81/110/27 
f 74/115/20 76/116/22 81/110/27 
f 76/116/22 78/117/24 81/110/27 
f 78/117/24 80/118/26 81/110/27 
f 80/118/26 60/108/6 81/110/27 
f 82/119/3 83/120/4 84/121/5 85/122/6 
f 83/123/4 86/124/7 87/125/8 84/126/5 
f 86/124/7 88/127/9 89/128/10 87/125/8 
f 88/127/9 90/129/11 91/130/12 89/128/10 
f 90/129/11 92/131/13 93/132/14 91/130/12 
f 92/131/13 94/133/15 95/134/16 93/132/14 
f 94/133/15 96/135/17 97/136/18 95/134/16 
f 96/135/17 98/137/19 99/138/20 97/136/18 
f 98/137/19 100/139/21 101/140/22 99/138/20 
f 100/139/21 102/141/23 103/142/24 101/140/22 
f 102/141/23 104/143/25 105/144/26 103/142/24 
f 104/143/25 82/119/3 85/122/6 105/144/26 
f 85/145/6 84/146/5 106/147/27 
f 84/146/5 87/148/8 106/147/27 
f 87/148/8 89/128/10 106/147/27 
f 89/128/10 91/130/12 106/147/27 
f 91/130/12 93/149/14 106/147/27 
f 93/149/14 95/150/16 106/147/27 
f 95/150/16 97/151/18 106/147/27 
f 97/151/18 99/152/20 106/147/27 
f 99/152/20 101/153/22 106/147/27 
f 101/153/22 103/154/24 106/147/27 
f 103/154/24 105/155/26 106/147/27 
f 105/155/26 85/145/6 106/147/27 
f 2/2/28 1/1/28 107/156/28 5/5/28 
f 4/157/29 3/158/29 6/159/29 108/160/29 
f 1/1/30 4/161/30 108/162/30 107/156/30 
f 107/156/15 108/160/15 6/159/15 5/5/15 
# 54 polygons - 48 triangles

