# 3ds Max Wavefront OBJ Exporter v0.99 - (c)2007 guruware
# File Created: 05.01.2022 13:19:22

mtllib libro_abierto.mtl

#
# object Libro_Abierto001
#

v  -41.1500 -2.0929 28.0511
v  -41.1500 -2.0929 -28.0511
v  -28.0721 -2.0929 -28.0511
v  -28.0721 -2.0929 28.0511
v  -18.7147 -2.2837 -28.0511
v  -18.7147 -2.2837 28.0511
v  -9.3574 -2.2837 -27.5205
v  -9.3574 -2.2837 27.5205
v  -4.5900 -3.5799 -27.5701
v  -4.5900 -3.5799 27.8308
v  0.0000 -3.8270 -26.9407
v  4.8033 -3.5192 -27.5844
v  4.8033 -3.5192 27.8451
v  0.0000 -3.8270 26.9407
v  9.3574 -2.2837 27.5205
v  9.3574 -2.2837 -27.5205
v  18.7147 -2.0929 -28.0511
v  18.7147 -2.0929 28.0511
v  28.0721 -2.0929 -28.0511
v  28.0721 -2.0929 28.0511
v  41.1500 -2.0929 -28.0511
v  41.1500 -2.0929 28.0511
v  -37.4294 8.5696 24.3306
v  -28.0721 11.1014 24.3306
v  -28.0721 11.1014 -24.3306
v  -37.4294 8.5696 -24.3306
v  -18.7147 10.1687 24.3306
v  -18.7147 10.1687 -24.3306
v  -9.3574 8.5696 24.1301
v  -9.3574 8.5696 -24.1301
v  -4.5900 7.3303 23.7136
v  -4.5900 7.3303 -23.7136
v  4.8033 7.5045 23.7313
v  4.8033 7.5045 -23.7313
v  0.0000 3.5812 -23.4728
v  0.0000 3.5812 23.4728
v  9.3574 8.5696 24.1301
v  18.7147 10.1687 24.3306
v  18.7147 10.1687 -24.3306
v  9.3574 8.5696 -24.1301
v  28.0721 11.1014 24.3306
v  28.0721 11.1014 -24.3306
v  37.4294 8.5696 24.3306
v  37.4294 8.5696 -24.3306
v  -28.0721 2.4608 28.0511
v  -41.1500 2.4608 28.0511
v  -18.7147 2.4608 28.0508
v  -9.3574 2.4608 27.4877
v  -4.5900 2.4608 27.8304
v  4.8033 2.4608 27.8444
v  0.0000 2.4608 26.9407
v  18.7147 2.4608 28.0508
v  9.3574 2.4608 27.4877
v  28.0721 2.4608 28.0511
v  41.1500 2.4608 28.0511
v  -37.4294 2.4608 24.3306
v  -28.0721 2.4608 24.3306
v  -18.7147 2.4608 24.3306
v  -9.3574 2.4608 23.8963
v  -4.5900 2.4608 23.5910
v  4.8033 2.4608 23.6020
v  0.0000 2.4608 23.4647
v  9.3574 2.4608 23.8963
v  18.7147 2.4608 24.3306
v  28.0721 2.4608 24.3306
v  37.4294 2.4608 24.3306
v  41.1500 2.4608 -28.0511
v  37.4294 2.4608 -24.3306
v  28.0721 2.4608 -28.0511
v  18.7147 2.4608 -28.0508
v  9.3574 2.4608 -27.4877
v  4.8033 2.4608 -27.5838
v  -4.5900 2.4608 -27.5697
v  0.0000 2.4608 -26.9407
v  -18.7147 2.4608 -28.0508
v  -9.3574 2.4608 -27.4877
v  -28.0721 2.4608 -28.0511
v  -41.1500 2.4608 -28.0511
v  28.0721 2.4608 -24.3306
v  18.7147 2.4608 -24.3306
v  9.3574 2.4608 -23.8963
v  4.8033 2.4608 -23.6020
v  -4.5900 2.4608 -23.5910
v  0.0000 2.4608 -23.4647
v  -9.3574 2.4608 -23.8963
v  -18.7147 2.4608 -24.3306
v  -28.0721 2.4608 -24.3306
v  -37.4294 2.4608 -24.3306
# 88 vertices

vn 0.0000 -1.0000 -0.0000
vn -0.0102 -0.9999 -0.0000
vn -0.0104 -0.9999 -0.0000
vn -0.1304 -0.9915 -0.0000
vn -0.1326 -0.9912 -0.0000
vn -0.1634 -0.9866 -0.0000
vn -0.1636 -0.9865 -0.0000
vn 0.0051 -1.0000 -0.0000
vn 0.1677 -0.9858 -0.0000
vn 0.0050 -1.0000 -0.0000
vn 0.1426 -0.9898 -0.0000
vn 0.1405 -0.9901 -0.0000
vn 0.0100 -0.9999 -0.0000
vn -0.2612 0.9653 -0.0000
vn -0.0824 0.9966 -0.0000
vn 0.1337 0.9910 -0.0000
vn 0.2088 0.9780 -0.0000
vn 0.4449 0.8956 -0.0000
vn -0.4333 0.9013 -0.0000
vn -0.0003 1.0000 -0.0000
vn -0.1972 0.9804 -0.0000
vn -0.1337 0.9910 -0.0000
vn 0.0824 0.9966 -0.0000
vn 0.2612 0.9653 -0.0000
vn 0.0000 0.0000 1.0000
vn 0.0294 0.0018 0.9996
vn 0.0292 0.0018 0.9996
vn -0.0097 0.0033 0.9999
vn -0.0048 0.0033 1.0000
vn 0.0759 0.0014 0.9971
vn 0.0617 0.0016 0.9981
vn -0.0704 0.0014 0.9975
vn -0.0559 0.0016 0.9984
vn 0.0027 0.0000 1.0000
vn 0.0034 0.0000 1.0000
vn 0.0135 0.0033 0.9999
vn -0.0294 0.0018 0.9996
vn -0.0292 0.0018 0.9996
vn 0.0079 0.0033 1.0000
vn -0.0000 0.0000 1.0000
vn 0.0162 -0.0085 0.9998
vn 0.0148 -0.0077 0.9999
vn 0.0519 -0.0247 0.9983
vn 0.0492 -0.0236 0.9985
vn 0.0512 -0.0271 0.9983
vn 0.0582 -0.0289 0.9979
vn -0.0521 -0.0274 0.9983
vn -0.0589 -0.0291 0.9978
vn -0.0005 -0.0220 0.9998
vn -0.0523 -0.0247 0.9983
vn -0.0162 -0.0085 0.9998
vn -0.0148 -0.0077 0.9999
vn -0.0497 -0.0237 0.9985
vn 1.0000 0.0000 -0.0000
vn 0.0000 0.0000 -1.0000
vn -0.0000 0.0000 -1.0000
vn -0.0294 0.0018 -0.9996
vn -0.0292 0.0018 -0.9996
vn -0.0175 0.0033 -0.9998
vn -0.0206 0.0033 -0.9998
vn -0.0664 0.0014 -0.9978
vn -0.0580 0.0016 -0.9983
vn 0.0695 0.0014 -0.9976
vn 0.0614 0.0016 -0.9981
vn 0.0015 0.0000 -1.0000
vn 0.0020 0.0000 -1.0000
vn 0.0197 0.0033 -0.9998
vn 0.0294 0.0018 -0.9996
vn 0.0292 0.0018 -0.9996
vn 0.0225 0.0033 -0.9997
vn -0.0162 -0.0085 -0.9998
vn -0.0148 -0.0077 -0.9999
vn -0.0523 -0.0247 -0.9983
vn -0.0497 -0.0237 -0.9985
vn -0.0521 -0.0274 -0.9983
vn -0.0589 -0.0291 -0.9978
vn 0.0512 -0.0271 -0.9983
vn 0.0582 -0.0289 -0.9979
vn -0.0005 -0.0220 -0.9998
vn 0.0519 -0.0247 -0.9983
vn 0.0162 -0.0085 -0.9998
vn 0.0148 -0.0077 -0.9999
vn 0.0492 -0.0236 -0.9985
vn -1.0000 0.0000 -0.0000
vn 0.0000 1.0000 -0.0000
vn -0.0000 1.0000 0.0000
vn 0.0000 1.0000 0.0000
# 87 vertex normals

vt 0.0115 0.9871 0.0000
vt 0.0078 0.5464 0.0000
vt 0.1123 0.5717 0.0000
vt 0.1123 0.9923 0.0000
vt 0.1872 0.5779 0.0000
vt 0.1866 0.9989 0.0000
vt 0.2608 0.5793 0.0000
vt 0.2597 0.9966 0.0000
vt 0.2984 0.5815 0.0000
vt 0.2978 0.9993 0.0000
vt 0.3322 0.5838 0.0000
vt 0.3677 0.5815 0.0000
vt 0.3682 0.9995 0.0000
vt 0.3322 0.9927 0.0000
vt 0.4047 0.9967 0.0000
vt 0.4036 0.5794 0.0000
vt 0.4773 0.5777 0.0000
vt 0.4779 0.9990 0.0000
vt 0.5523 0.5721 0.0000
vt 0.5522 0.9925 0.0000
vt 0.6569 0.5469 0.0000
vt 0.6531 0.9875 0.0000
vt 0.0729 0.1252 0.0000
vt 0.1336 0.1200 0.0000
vt 0.1321 0.4744 0.0000
vt 0.0709 0.4795 0.0000
vt 0.1921 0.1118 0.0000
vt 0.1920 0.4750 0.0000
vt 0.2561 0.1099 0.0000
vt 0.2563 0.4730 0.0000
vt 0.2894 0.1111 0.0000
vt 0.2895 0.4702 0.0000
vt 0.3772 0.1113 0.0000
vt 0.3772 0.4701 0.0000
vt 0.3323 0.4756 0.0000
vt 0.3324 0.1051 0.0000
vt 0.4085 0.1100 0.0000
vt 0.4725 0.1122 0.0000
vt 0.4727 0.4755 0.0000
vt 0.4083 0.4733 0.0000
vt 0.5311 0.1205 0.0000
vt 0.5325 0.4749 0.0000
vt 0.5918 0.1258 0.0000
vt 0.5937 0.4801 0.0000
vt 0.0005 0.0920 0.0000
vt 0.0947 0.0229 0.0000
vt 0.1077 0.0521 0.0000
vt 0.0236 0.1021 0.0000
vt 0.1772 0.0029 0.0000
vt 0.1819 0.0366 0.0000
vt 0.2570 0.0063 0.0000
vt 0.2571 0.0421 0.0000
vt 0.2971 0.0006 0.0000
vt 0.2960 0.0458 0.0000
vt 0.3692 0.0005 0.0000
vt 0.3704 0.0452 0.0000
vt 0.3324 0.0520 0.0000
vt 0.3322 0.0017 0.0000
vt 0.4080 0.0060 0.0000
vt 0.4878 0.0046 0.0000
vt 0.4831 0.0371 0.0000
vt 0.4078 0.0417 0.0000
vt 0.5702 0.0235 0.0000
vt 0.5572 0.0527 0.0000
vt 0.6643 0.0926 0.0000
vt 0.6412 0.1027 0.0000
vt 0.0478 0.1135 0.0000
vt 0.1154 0.0719 0.0000
vt 0.1873 0.0604 0.0000
vt 0.2594 0.0681 0.0000
vt 0.2971 0.0775 0.0000
vt 0.3693 0.0768 0.0000
vt 0.3325 0.0863 0.0000
vt 0.4054 0.0678 0.0000
vt 0.4775 0.0610 0.0000
vt 0.5494 0.0724 0.0000
vt 0.6170 0.1141 0.0000
vt 0.6409 0.5224 0.0000
vt 0.6170 0.4989 0.0000
vt 0.5472 0.5461 0.0000
vt 0.4746 0.5499 0.0000
vt 0.4028 0.5432 0.0000
vt 0.3681 0.5379 0.0000
vt 0.2980 0.5374 0.0000
vt 0.3323 0.5323 0.0000
vt 0.1900 0.5491 0.0000
vt 0.2618 0.5429 0.0000
vt 0.1173 0.5456 0.0000
vt 0.0238 0.5219 0.0000
vt 0.5434 0.5281 0.0000
vt 0.4718 0.5290 0.0000
vt 0.4018 0.5180 0.0000
vt 0.3676 0.5082 0.0000
vt 0.2986 0.5074 0.0000
vt 0.3324 0.4982 0.0000
vt 0.2629 0.5176 0.0000
vt 0.1928 0.5284 0.0000
vt 0.1212 0.5276 0.0000
vt 0.0476 0.4983 0.0000
# 99 texture coords

o Libro_Abierto001
g Libro_Abierto001
usemtl Material__42
s off
f 1/1/1 2/2/1 3/3/2 4/4/2 
f 4/4/2 3/3/2 5/5/3 6/6/3 
f 6/6/3 5/5/3 7/7/4 8/8/5 
f 7/7/4 9/9/6 10/10/7 8/8/5 
f 11/11/8 12/12/9 13/13/9 14/14/10 
f 15/15/11 16/16/12 17/17/13 18/18/13 
f 18/18/13 17/17/13 19/19/1 20/20/1 
f 20/20/1 19/19/1 21/21/1 22/22/1 
f 23/23/14 24/24/15 25/25/15 26/26/14 
f 24/24/15 27/27/16 28/28/16 25/25/15 
f 27/27/16 29/29/17 30/30/17 28/28/16 
f 31/31/18 32/32/18 30/30/17 29/29/17 
f 33/33/19 34/34/19 35/35/20 36/36/20 
f 37/37/21 38/38/22 39/39/22 40/40/21 
f 38/38/22 41/41/23 42/42/23 39/39/22 
f 41/41/23 43/43/24 44/44/24 42/42/23 
f 1/45/25 4/46/25 45/47/25 46/48/25 
f 4/46/25 6/49/26 47/50/27 45/47/25 
f 6/49/26 8/51/28 48/52/29 47/50/27 
f 8/51/28 10/53/30 49/54/31 48/52/29 
f 13/55/32 50/56/33 51/57/34 14/58/35 
f 15/59/36 18/60/37 52/61/38 53/62/39 
f 18/60/37 20/63/40 54/64/40 52/61/38 
f 20/63/40 22/65/25 55/66/25 54/64/40 
f 56/67/25 57/68/25 24/24/25 23/23/25 
f 57/68/25 58/69/41 27/27/42 24/24/25 
f 58/69/41 59/70/43 29/29/44 27/27/42 
f 59/70/43 60/71/45 31/31/46 29/29/44 
f 61/72/47 33/33/48 36/36/49 62/73/49 
f 63/74/50 64/75/51 38/38/52 37/37/53 
f 64/75/51 65/76/25 41/41/25 38/38/52 
f 65/76/25 66/77/25 43/43/25 41/41/25 
f 22/65/54 21/21/54 67/78/54 55/66/54 
f 66/77/54 68/79/54 44/44/54 43/43/54 
f 21/21/55 19/19/56 69/80/56 67/78/55 
f 19/19/56 17/17/57 70/81/58 69/80/56 
f 17/17/57 16/16/59 71/82/60 70/81/58 
f 16/16/59 12/12/61 72/83/62 71/82/60 
f 9/9/63 73/84/64 74/85/65 11/11/66 
f 7/7/67 5/5/68 75/86/69 76/87/70 
f 5/5/68 3/3/55 77/88/55 75/86/69 
f 3/3/55 2/2/55 78/89/55 77/88/55 
f 68/79/55 79/90/55 42/42/55 44/44/55 
f 79/90/55 80/91/71 39/39/72 42/42/55 
f 80/91/71 81/92/73 40/40/74 39/39/72 
f 81/92/73 82/93/75 34/34/76 40/40/74 
f 83/94/77 32/32/78 35/35/79 84/95/79 
f 85/96/80 86/97/81 28/28/82 30/30/83 
f 86/97/81 87/98/55 25/25/55 28/28/82 
f 87/98/55 88/99/55 26/26/55 25/25/55 
f 2/2/84 1/45/84 46/48/84 78/89/84 
f 88/99/84 56/67/84 23/23/84 26/26/84 
f 57/68/85 56/67/85 46/48/85 45/47/85 
f 56/67/85 88/99/85 78/89/85 46/48/85 
f 88/99/85 87/98/85 77/88/85 78/89/85 
f 87/98/85 86/97/85 75/86/85 77/88/85 
f 86/97/85 85/96/85 76/87/85 75/86/85 
f 83/94/85 73/84/85 76/87/85 85/96/85 
f 82/93/85 72/83/85 74/85/85 84/95/85 
f 81/92/85 80/91/85 70/81/85 71/82/85 
f 80/91/85 79/90/85 69/80/85 70/81/85 
f 79/90/85 68/79/85 67/78/85 69/80/85 
f 68/79/85 66/77/85 55/66/85 67/78/85 
f 66/77/85 65/76/85 54/64/85 55/66/85 
f 65/76/85 64/75/85 52/61/85 54/64/85 
f 64/75/85 63/74/85 53/62/85 52/61/85 
f 61/72/86 50/56/86 53/62/86 63/74/86 
f 60/71/86 49/54/86 51/57/86 62/73/86 
f 59/70/85 58/69/85 47/50/85 48/52/85 
f 58/69/85 57/68/85 45/47/85 47/50/85 
f 16/16/12 15/15/11 13/13/9 12/12/9 
f 37/37/21 40/40/21 34/34/19 33/33/19 
f 15/59/36 53/62/39 50/56/33 13/55/32 
f 63/74/50 37/37/53 33/33/48 61/72/47 
f 12/12/61 11/11/66 74/85/65 72/83/62 
f 82/93/75 84/95/79 35/35/79 34/34/76 
f 81/92/85 71/82/85 72/83/85 82/93/85 
f 62/73/87 51/57/87 50/56/87 61/72/87 
f 11/11/8 14/14/10 10/10/7 9/9/6 
f 36/36/20 35/35/20 32/32/18 31/31/18 
f 10/53/30 14/58/35 51/57/34 49/54/31 
f 60/71/45 62/73/49 36/36/49 31/31/46 
f 7/7/67 76/87/70 73/84/64 9/9/63 
f 85/96/80 30/30/83 32/32/78 83/94/77 
f 84/95/85 74/85/85 73/84/85 83/94/85 
f 59/70/87 48/52/87 49/54/87 60/71/87 
# 86 polygons

